<mxfile host="Electron" modified="2023-04-30T13:31:41.362Z" agent="Mozilla/5.0 (X11; Linux x86_64) AppleWebKit/537.36 (KHTML, like Gecko) draw.io/21.2.1 Chrome/112.0.5615.87 Electron/24.1.2 Safari/537.36" etag="EW45rtrDFhbi7L42iEmA" version="21.2.1" type="device">
  <diagram name="01-yc-infrastructure" id="u0_qoLxacsYy1yx63fCi">
    <mxGraphModel dx="995" dy="608" grid="1" gridSize="10" guides="1" tooltips="1" connect="1" arrows="1" fold="1" page="1" pageScale="1" pageWidth="1169" pageHeight="827" math="0" shadow="0">
      <root>
        <mxCell id="0" />
        <mxCell id="1" parent="0" />
        <mxCell id="vYmP_Um6Q3c70uRfRdLr-73" value="&lt;b&gt;Network: demo-project&lt;/b&gt;" style="rounded=0;whiteSpace=wrap;html=1;strokeColor=#0F8B8D;fontColor=#143642;fillColor=none;dashed=1;labelPosition=center;verticalLabelPosition=middle;align=right;verticalAlign=top;" parent="1" vertex="1">
          <mxGeometry x="280" y="39" width="760" height="740" as="geometry" />
        </mxCell>
        <mxCell id="vYmP_Um6Q3c70uRfRdLr-60" value="" style="ellipse;shape=cloud;whiteSpace=wrap;html=1;strokeColor=#0F8B8D;fontColor=#143642;fillColor=default;fillStyle=auto;" parent="1" vertex="1">
          <mxGeometry x="29" y="39.5" width="240" height="145" as="geometry" />
        </mxCell>
        <mxCell id="PsxlBRJsRAH7s1QMs9hU-3" value="&lt;span&gt;Subnet: prod-a&lt;br&gt;192.168.2.0/24&lt;br&gt;&lt;/span&gt;" style="verticalLabelPosition=middle;verticalAlign=top;html=1;shape=mxgraph.basic.patternFillRect;fillStyle=diag;step=5;fillStrokeWidth=0.2;fillStrokeColor=#dddddd;fillColor=#FAE5C7;strokeColor=#0F8B8D;labelPosition=center;align=right;fontStyle=1;rounded=1;labelBackgroundColor=none;fontColor=#143642;" parent="1" vertex="1">
          <mxGeometry x="319" y="439" width="460" height="320" as="geometry" />
        </mxCell>
        <mxCell id="vYmP_Um6Q3c70uRfRdLr-35" value="" style="whiteSpace=wrap;html=1;fillColor=none;dashed=1;strokeColor=#0F8B8D;rounded=1;labelBackgroundColor=none;fontColor=#143642;" parent="1" vertex="1">
          <mxGeometry x="363" y="480" width="400" height="260" as="geometry" />
        </mxCell>
        <mxCell id="WFQ-rQkkfXh06fbAT7TV-8" value="&lt;div&gt;&lt;b&gt;Subnet: stage-a&lt;/b&gt;&lt;/div&gt;&lt;div&gt;&lt;b&gt;192.168.1.0/24&lt;/b&gt;&lt;/div&gt;" style="verticalLabelPosition=middle;verticalAlign=top;html=1;shape=mxgraph.basic.patternFillRect;fillStyle=diag;step=5;fillStrokeWidth=0.2;fillStrokeColor=#dddddd;fillColor=#FAE5C7;strokeColor=#0F8B8D;labelPosition=center;align=right;rounded=1;labelBackgroundColor=none;fontColor=#143642;" parent="1" vertex="1">
          <mxGeometry x="319" y="79" width="460" height="320" as="geometry" />
        </mxCell>
        <mxCell id="PsxlBRJsRAH7s1QMs9hU-42" value="" style="whiteSpace=wrap;html=1;fillColor=none;dashed=1;strokeColor=#0F8B8D;rounded=1;labelBackgroundColor=none;fontColor=#143642;" parent="1" vertex="1">
          <mxGeometry x="363" y="120" width="400" height="260" as="geometry" />
        </mxCell>
        <mxCell id="WFQ-rQkkfXh06fbAT7TV-2" value="Load Balancer&#xa;k8s-stage.pinbit.ru&#xa;demo.stage.pinbit.ru" style="shape=image;verticalLabelPosition=bottom;verticalAlign=top;imageAspect=0;aspect=fixed;image=data:image/svg+xml,PHN2ZyB4bWxucz0iaHR0cDovL3d3dy53My5vcmcvMjAwMC9zdmciIHdpZHRoPSIzNiIgaGVpZ2h0PSIzNiIgdmlld0JveD0iMCAwIDM2IDM2IiBmaWxsPSJub25lIj4mI3hhOzxwYXRoIGZpbGwtcnVsZT0iZXZlbm9kZCIgY2xpcC1ydWxlPSJldmVub2RkIiBkPSJNMTggMEMyNy45MzYgMCAzNiA4LjA2MyAzNiAxOEMzNiAyNy45MzcgMjcuOTM2IDM2IDE4IDM2QzguMDY0IDM2IDAgMjcuOTM3IDAgMThDMCA4LjA2MyA4LjA2NCAwIDE4IDBaIiBmaWxsPSIjNTI4MkZGIi8+JiN4YTs8cGF0aCBmaWxsLXJ1bGU9ImV2ZW5vZGQiIGNsaXAtcnVsZT0iZXZlbm9kZCIgZD0iTTIyLjA4NSAyMy45OThIMTguNTAzQzE4LjAyIDI0LjAwNCAxNy41OTYgMjMuODc4IDE3LjMxMyAyMy41NDNDMTcuMDQ3IDIzLjIyNyAxNi45OTYgMjIuODI3IDE3IDIyLjQ5NlYxMi41MDFDMTYuOTk2IDEyLjE3MSAxNy4wNDcgMTEuNzcxIDE3LjMxMyAxMS40NTRDMTcuNTk2IDExLjExOSAxOC4wMiAxMC45OTMgMTguNTAzIDEwLjk5OEgyMi4wODRDMjIuMjAxNiAxMC42NjM5IDIyLjQzMzYgMTAuMzgyMSAyMi43MzkgMTAuMjAyNkMyMy4wNDQ0IDEwLjAyMzEgMjMuNDAzNCA5Ljk1NzUgMjMuNzUyNiAxMC4wMTc0QzI0LjEwMTcgMTAuMDc3MyAyNC40MTg0IDEwLjI1ODggMjQuNjQ2NSAxMC41Mjk4QzI0Ljg3NDcgMTAuODAwOCAyNC45OTk1IDExLjE0MzggMjQuOTk5IDExLjQ5OEMyNC45OTk1IDExLjg1MjMgMjQuODc0NyAxMi4xOTUzIDI0LjY0NjUgMTIuNDY2M0MyNC40MTg0IDEyLjczNzMgMjQuMTAxNyAxMi45MTg4IDIzLjc1MjYgMTIuOTc4N0MyMy40MDM0IDEzLjAzODYgMjMuMDQ0NCAxMi45NzI5IDIyLjczOSAxMi43OTM1QzIyLjQzMzYgMTIuNjE0IDIyLjIwMTYgMTIuMzMyMiAyMi4wODQgMTEuOTk4SDE4LjQ5NkMxOC4xNzYgMTEuOTk0IDE4LjA5NyAxMi4wNzcgMTguMDc3IDEyLjA5OEMxOC4wNDQgMTIuMTQgMTcuOTk2IDEyLjI0NCAxOCAxMi40OTRMMTcuOTk5IDE3TDIyLjA4NCAxNi45OThDMjIuMjkxIDE2LjQxOCAyMi44NDUgMTYuMDAxIDIzLjQ5OSAxNi4wMDFDMjMuNzc0MSAxNi4wMDEyIDI0LjA0MzkgMTYuMDc2OSAyNC4yNzg4IDE2LjIyMDFDMjQuNTEzNyAxNi4zNjMyIDI0LjcwNDggMTYuNTY4MiAyNC44MzEgMTYuODEyN0MyNC45NTcyIDE3LjA1NzEgMjUuMDEzOCAxNy4zMzE1IDI0Ljk5NDYgMTcuNjA2QzI0Ljk3NTQgMTcuODgwNCAyNC44ODEgMTguMTQ0MiAyNC43MjE5IDE4LjM2ODZDMjQuNTYyOCAxOC41OTMxIDI0LjM0NSAxOC43Njk0IDI0LjA5MjQgMTguODc4NEMyMy44Mzk4IDE4Ljk4NzMgMjMuNTYyMSAxOS4wMjQ3IDIzLjI4OTYgMTguOTg2NEMyMy4wMTcyIDE4Ljk0ODIgMjIuNzYwNiAxOC44MzU3IDIyLjU0NzcgMTguNjYxNEMyMi4zMzQ5IDE4LjQ4NzEgMjIuMTc0MiAxOC4yNTc2IDIyLjA4MyAxNy45OThIMThWMjIuNTA0QzE3Ljk5NiAyMi43NTQgMTguMDQ0IDIyLjg1OSAxOC4wNzcgMjIuOUMxOC4wOTcgMjIuOTIxIDE4LjE3NiAyMy4wMDQgMTguNDk2IDIyLjk5OUgyMi4wODZDMjIuMjA0MSAyMi42NjU2IDIyLjQzNjIgMjIuMzg0NiAyMi43NDEzIDIyLjIwNTZDMjMuMDQ2NSAyMi4wMjY3IDIzLjQwNSAyMS45NjE0IDIzLjc1MzcgMjIuMDIxMkMyNC4xMDIzIDIyLjA4MTEgMjQuNDE4NiAyMi4yNjIyIDI0LjY0NjcgMjIuNTMyNkMyNC44NzQ3IDIyLjgwMyAyNC45OTk5IDIzLjE0NTMgMjUgMjMuNDk5QzI1LjAwMDUgMjMuODUzMyAyNC44NzU3IDI0LjE5NjMgMjQuNjQ3NSAyNC40NjczQzI0LjQxOTQgMjQuNzM4MyAyNC4xMDI3IDI0LjkxOTggMjMuNzUzNiAyNC45Nzk3QzIzLjQwNDQgMjUuMDM5NiAyMy4wNDU0IDI0Ljk3MzkgMjIuNzQgMjQuNzk0NUMyMi40MzQ2IDI0LjYxNSAyMi4yMDI2IDI0LjMzMzIgMjIuMDg1IDIzLjk5OVYyMy45OThaTTEyIDIwLjY4N1YxOUgxMC4yODFDMTAuMjA2MyAxOC45OTk1IDEwLjEzNDggMTguOTY5NCAxMC4wODIyIDE4LjkxNjRDMTAuMDI5NSAxOC44NjM0IDEwIDE4Ljc5MTcgMTAgMTguNzE3VjE2LjI4MUMxMCAxNi4xMjUgMTAuMTI3IDE1Ljk5OSAxMC4yODEgMTUuOTk5SDEyVjE0LjMxOUMxMiAxMy45ODkgMTIuMjAxIDEzLjg5OSAxMi40NDggMTQuMTE3TDE1LjgxMyAxNy4xMDdDMTUuODcwNyAxNy4xNTU4IDE1LjkxNzEgMTcuMjE2NiAxNS45NDg5IDE3LjI4NTJDMTUuOTgwNyAxNy4zNTM4IDE1Ljk5NzIgMTcuNDI4NCAxNS45OTcyIDE3LjUwNEMxNS45OTcyIDE3LjU3OTYgMTUuOTgwNyAxNy42NTQzIDE1Ljk0ODkgMTcuNzIyOEMxNS45MTcxIDE3Ljc5MTQgMTUuODcwNyAxNy44NTIyIDE1LjgxMyAxNy45MDFMMTIuNDQ4IDIwLjg5QzEyLjIwMSAyMS4xMDggMTIgMjEuMDE4IDEyIDIwLjY4N1pNMTcgMTcuNDk5QzE3LjAxMyAxNy4zNjUgMTcgMTcuNDMxIDE3IDE3LjQ5OVYxNy40OTlaIiBmaWxsPSJ3aGl0ZSIvPiYjeGE7PC9zdmc+;fontStyle=1;rounded=1;labelBackgroundColor=none;fillColor=#FAE5C7;strokeColor=#0F8B8D;fontColor=#143642;" parent="1" vertex="1">
          <mxGeometry x="288" y="201" width="50" height="50" as="geometry" />
        </mxCell>
        <mxCell id="WFQ-rQkkfXh06fbAT7TV-10" value="ingress-stage-N" style="verticalLabelPosition=middle;verticalAlign=top;html=1;shape=mxgraph.basic.patternFillRect;fillStyle=diag;step=5;fillStrokeWidth=0.2;fillStrokeColor=#dddddd;fillColor=#FAE5C7;strokeColor=#0F8B8D;labelPosition=center;align=center;fontStyle=1;rounded=1;labelBackgroundColor=none;fontColor=#143642;" parent="1" vertex="1">
          <mxGeometry x="384" y="132" width="100" height="170" as="geometry" />
        </mxCell>
        <mxCell id="WFQ-rQkkfXh06fbAT7TV-11" value="&lt;div&gt;Local DNS&lt;/div&gt;" style="verticalLabelPosition=middle;verticalAlign=middle;html=1;shape=mxgraph.basic.patternFillRect;fillStyle=diag;step=5;fillStrokeWidth=0.2;fillStrokeColor=#dddddd;labelPosition=center;align=center;rounded=1;labelBackgroundColor=none;fillColor=#FAE5C7;strokeColor=#0F8B8D;fontColor=#143642;" parent="1" vertex="1">
          <mxGeometry x="394" y="156" width="80" height="24" as="geometry" />
        </mxCell>
        <mxCell id="WFQ-rQkkfXh06fbAT7TV-12" value="&lt;div&gt;API proxy&lt;/div&gt;" style="verticalLabelPosition=middle;verticalAlign=middle;html=1;shape=mxgraph.basic.patternFillRect;fillStyle=diag;step=5;fillStrokeWidth=0.2;fillStrokeColor=#dddddd;labelPosition=center;align=center;rounded=1;labelBackgroundColor=none;fillColor=#FAE5C7;strokeColor=#0F8B8D;fontColor=#143642;" parent="1" vertex="1">
          <mxGeometry x="394" y="185" width="80" height="24" as="geometry" />
        </mxCell>
        <mxCell id="PsxlBRJsRAH7s1QMs9hU-2" value="" style="image;aspect=fixed;html=1;points=[];align=center;fontSize=12;image=img/lib/mscae/Kubernetes.svg;rounded=1;labelBackgroundColor=none;fillColor=#FAE5C7;strokeColor=#0F8B8D;fontColor=#143642;" parent="1" vertex="1">
          <mxGeometry x="704" y="320" width="50" height="48" as="geometry" />
        </mxCell>
        <mxCell id="PsxlBRJsRAH7s1QMs9hU-4" value="&lt;b&gt;Subnet: dev&lt;br&gt;192.168.0.0/24&lt;br&gt;&lt;/b&gt;" style="verticalLabelPosition=middle;verticalAlign=top;html=1;shape=mxgraph.basic.patternFillRect;fillStyle=diag;step=5;fillStrokeWidth=0.2;fillStrokeColor=#dddddd;fillColor=#FAE5C7;strokeColor=#0F8B8D;labelPosition=center;align=right;rounded=1;labelBackgroundColor=none;fontColor=#143642;" parent="1" vertex="1">
          <mxGeometry x="819" y="79" width="180" height="680" as="geometry" />
        </mxCell>
        <mxCell id="PsxlBRJsRAH7s1QMs9hU-7" value="ingress-nginx" style="verticalLabelPosition=middle;verticalAlign=middle;html=1;shape=mxgraph.basic.patternFillRect;fillStyle=diag;step=5;fillStrokeWidth=0.2;fillStrokeColor=#dddddd;labelPosition=center;align=center;rounded=1;labelBackgroundColor=none;fillColor=#FAE5C7;strokeColor=#0F8B8D;fontColor=#143642;" parent="1" vertex="1">
          <mxGeometry x="394" y="214" width="80" height="24" as="geometry" />
        </mxCell>
        <mxCell id="PsxlBRJsRAH7s1QMs9hU-8" value="&lt;div&gt;worker-stage-N&lt;/div&gt;" style="verticalLabelPosition=middle;verticalAlign=top;html=1;shape=mxgraph.basic.patternFillRect;fillStyle=diag;step=5;fillStrokeWidth=0.2;fillStrokeColor=#dddddd;fillColor=#FAE5C7;strokeColor=#0F8B8D;labelPosition=center;align=center;fontStyle=1;rounded=1;labelBackgroundColor=none;fontColor=#143642;" parent="1" vertex="1">
          <mxGeometry x="504" y="132" width="100" height="170" as="geometry" />
        </mxCell>
        <mxCell id="PsxlBRJsRAH7s1QMs9hU-9" value="&lt;div&gt;Local DNS&lt;/div&gt;" style="verticalLabelPosition=middle;verticalAlign=middle;html=1;shape=mxgraph.basic.patternFillRect;fillStyle=diag;step=5;fillStrokeWidth=0.2;fillStrokeColor=#dddddd;labelPosition=center;align=center;rounded=1;labelBackgroundColor=none;fillColor=#FAE5C7;strokeColor=#0F8B8D;fontColor=#143642;" parent="1" vertex="1">
          <mxGeometry x="517" y="156" width="80" height="24" as="geometry" />
        </mxCell>
        <mxCell id="PsxlBRJsRAH7s1QMs9hU-10" value="&lt;div&gt;API proxy&lt;/div&gt;" style="verticalLabelPosition=middle;verticalAlign=middle;html=1;shape=mxgraph.basic.patternFillRect;fillStyle=diag;step=5;fillStrokeWidth=0.2;fillStrokeColor=#dddddd;labelPosition=center;align=center;rounded=1;labelBackgroundColor=none;fillColor=#FAE5C7;strokeColor=#0F8B8D;fontColor=#143642;" parent="1" vertex="1">
          <mxGeometry x="517" y="185" width="80" height="24" as="geometry" />
        </mxCell>
        <mxCell id="PsxlBRJsRAH7s1QMs9hU-11" value="&lt;div&gt;Apps&lt;/div&gt;" style="verticalLabelPosition=middle;verticalAlign=middle;html=1;shape=mxgraph.basic.patternFillRect;fillStyle=diag;step=5;fillStrokeWidth=0.2;fillStrokeColor=#dddddd;labelPosition=center;align=center;rounded=1;labelBackgroundColor=none;fillColor=#FAE5C7;strokeColor=#0F8B8D;fontColor=#143642;" parent="1" vertex="1">
          <mxGeometry x="517" y="214" width="80" height="24" as="geometry" />
        </mxCell>
        <mxCell id="PsxlBRJsRAH7s1QMs9hU-12" value="control-stage-N" style="verticalLabelPosition=middle;verticalAlign=top;html=1;shape=mxgraph.basic.patternFillRect;fillStyle=diag;step=5;fillStrokeWidth=0.2;fillStrokeColor=#dddddd;fillColor=#FAE5C7;strokeColor=#0F8B8D;labelPosition=center;align=center;fontStyle=1;rounded=1;labelBackgroundColor=none;fontColor=#143642;" parent="1" vertex="1">
          <mxGeometry x="624" y="132" width="100" height="170" as="geometry" />
        </mxCell>
        <mxCell id="PsxlBRJsRAH7s1QMs9hU-13" value="Core DNS" style="verticalLabelPosition=middle;verticalAlign=middle;html=1;shape=mxgraph.basic.patternFillRect;fillStyle=diag;step=5;fillStrokeWidth=0.2;fillStrokeColor=#dddddd;labelPosition=center;align=center;rounded=1;labelBackgroundColor=none;fillColor=#FAE5C7;strokeColor=#0F8B8D;fontColor=#143642;" parent="1" vertex="1">
          <mxGeometry x="634" y="156" width="80" height="24" as="geometry" />
        </mxCell>
        <mxCell id="PsxlBRJsRAH7s1QMs9hU-14" value="API server" style="verticalLabelPosition=middle;verticalAlign=middle;html=1;shape=mxgraph.basic.patternFillRect;fillStyle=diag;step=5;fillStrokeWidth=0.2;fillStrokeColor=#dddddd;labelPosition=center;align=center;rounded=1;labelBackgroundColor=none;fillColor=#FAE5C7;strokeColor=#0F8B8D;fontColor=#143642;" parent="1" vertex="1">
          <mxGeometry x="634" y="185" width="80" height="24" as="geometry" />
        </mxCell>
        <mxCell id="PsxlBRJsRAH7s1QMs9hU-29" style="edgeStyle=orthogonalEdgeStyle;orthogonalLoop=1;jettySize=auto;html=1;exitX=1;exitY=0.5;exitDx=0;exitDy=0;entryX=0;entryY=0.5;entryDx=0;entryDy=0;entryPerimeter=0;shadow=0;strokeColor=#A8201A;rounded=1;labelBackgroundColor=none;fontColor=default;" parent="1" source="WFQ-rQkkfXh06fbAT7TV-2" target="PsxlBRJsRAH7s1QMs9hU-7" edge="1">
          <mxGeometry relative="1" as="geometry" />
        </mxCell>
        <mxCell id="PsxlBRJsRAH7s1QMs9hU-37" style="edgeStyle=orthogonalEdgeStyle;rounded=1;orthogonalLoop=1;jettySize=auto;html=1;exitX=1;exitY=0.5;exitDx=0;exitDy=0;exitPerimeter=0;entryX=0;entryY=0.5;entryDx=0;entryDy=0;entryPerimeter=0;labelBackgroundColor=none;strokeColor=#A8201A;fontColor=default;" parent="1" source="PsxlBRJsRAH7s1QMs9hU-9" target="PsxlBRJsRAH7s1QMs9hU-13" edge="1">
          <mxGeometry relative="1" as="geometry" />
        </mxCell>
        <mxCell id="PsxlBRJsRAH7s1QMs9hU-38" style="edgeStyle=orthogonalEdgeStyle;rounded=1;orthogonalLoop=1;jettySize=auto;html=1;exitX=1;exitY=0.5;exitDx=0;exitDy=0;exitPerimeter=0;entryX=0;entryY=0.5;entryDx=0;entryDy=0;entryPerimeter=0;labelBackgroundColor=none;strokeColor=#A8201A;fontColor=default;" parent="1" source="PsxlBRJsRAH7s1QMs9hU-10" target="PsxlBRJsRAH7s1QMs9hU-14" edge="1">
          <mxGeometry relative="1" as="geometry" />
        </mxCell>
        <mxCell id="PsxlBRJsRAH7s1QMs9hU-40" value="" style="edgeStyle=orthogonalEdgeStyle;rounded=1;orthogonalLoop=1;jettySize=auto;html=1;labelBackgroundColor=none;strokeColor=#A8201A;fontColor=default;" parent="1" source="PsxlBRJsRAH7s1QMs9hU-7" target="PsxlBRJsRAH7s1QMs9hU-11" edge="1">
          <mxGeometry relative="1" as="geometry" />
        </mxCell>
        <mxCell id="WFQ-rQkkfXh06fbAT7TV-6" value="" style="html=1;dashed=0;whitespace=wrap;fillColor=#FAE5C7;strokeColor=#0F8B8D;points=[[0.005,0.63,0],[0.1,0.2,0],[0.9,0.2,0],[0.5,0,0],[0.995,0.63,0],[0.72,0.99,0],[0.5,1,0],[0.28,0.99,0]];verticalLabelPosition=bottom;align=center;verticalAlign=top;shape=mxgraph.kubernetes.icon;prIcon=ing;rounded=1;labelBackgroundColor=none;fontColor=#143642;" parent="1" vertex="1">
          <mxGeometry x="409" y="242" width="50" height="48" as="geometry" />
        </mxCell>
        <mxCell id="WFQ-rQkkfXh06fbAT7TV-5" value="" style="html=1;dashed=0;whitespace=wrap;fillColor=#FAE5C7;strokeColor=#0F8B8D;points=[[0.005,0.63,0],[0.1,0.2,0],[0.9,0.2,0],[0.5,0,0],[0.995,0.63,0],[0.72,0.99,0],[0.5,1,0],[0.28,0.99,0]];verticalLabelPosition=bottom;align=center;verticalAlign=top;shape=mxgraph.kubernetes.icon;prIcon=node;rounded=1;labelBackgroundColor=none;fontColor=#143642;" parent="1" vertex="1">
          <mxGeometry x="524" y="242" width="50" height="48" as="geometry" />
        </mxCell>
        <mxCell id="WFQ-rQkkfXh06fbAT7TV-4" value="" style="html=1;dashed=0;whitespace=wrap;fillColor=#FAE5C7;strokeColor=#0F8B8D;points=[[0.005,0.63,0],[0.1,0.2,0],[0.9,0.2,0],[0.5,0,0],[0.995,0.63,0],[0.72,0.99,0],[0.5,1,0],[0.28,0.99,0]];verticalLabelPosition=bottom;align=center;verticalAlign=top;shape=mxgraph.kubernetes.icon;prIcon=master;rounded=1;labelBackgroundColor=none;fontColor=#143642;" parent="1" vertex="1">
          <mxGeometry x="644" y="238" width="50" height="48" as="geometry" />
        </mxCell>
        <mxCell id="vYmP_Um6Q3c70uRfRdLr-19" value="" style="edgeStyle=orthogonalEdgeStyle;rounded=1;orthogonalLoop=1;jettySize=auto;html=1;labelBackgroundColor=none;strokeColor=#A8201A;fontColor=default;" parent="1" source="vYmP_Um6Q3c70uRfRdLr-14" target="vYmP_Um6Q3c70uRfRdLr-4" edge="1">
          <mxGeometry relative="1" as="geometry" />
        </mxCell>
        <mxCell id="vYmP_Um6Q3c70uRfRdLr-4" value="dev.pinbit.ru&lt;br&gt;jenkins.dev.pinbit.ru&lt;br&gt;atlantis.dev.pinbit.ru" style="verticalLabelPosition=top;verticalAlign=bottom;html=1;shape=mxgraph.basic.patternFillRect;fillStyle=diag;step=5;fillStrokeWidth=0.2;fillStrokeColor=#dddddd;fillColor=#FAE5C7;strokeColor=#0F8B8D;labelPosition=center;align=center;fontStyle=1;rounded=1;labelBackgroundColor=none;fontColor=#143642;" parent="1" vertex="1">
          <mxGeometry x="863" y="184" width="100" height="170" as="geometry" />
        </mxCell>
        <mxCell id="vYmP_Um6Q3c70uRfRdLr-5" value="&lt;div&gt;NGINX&lt;/div&gt;" style="verticalLabelPosition=middle;verticalAlign=middle;html=1;shape=mxgraph.basic.patternFillRect;fillStyle=diag;step=5;fillStrokeWidth=0.2;fillStrokeColor=#dddddd;labelPosition=center;align=center;rounded=1;labelBackgroundColor=none;fillColor=#FAE5C7;strokeColor=#0F8B8D;fontColor=#143642;" parent="1" vertex="1">
          <mxGeometry x="873" y="208" width="80" height="24" as="geometry" />
        </mxCell>
        <mxCell id="vYmP_Um6Q3c70uRfRdLr-6" value="&lt;div&gt;Jenkins&lt;/div&gt;" style="verticalLabelPosition=middle;verticalAlign=middle;html=1;shape=mxgraph.basic.patternFillRect;fillStyle=diag;step=5;fillStrokeWidth=0.2;fillStrokeColor=#dddddd;labelPosition=center;align=center;rounded=1;labelBackgroundColor=none;fillColor=#FAE5C7;strokeColor=#0F8B8D;fontColor=#143642;" parent="1" vertex="1">
          <mxGeometry x="873" y="237" width="80" height="24" as="geometry" />
        </mxCell>
        <mxCell id="vYmP_Um6Q3c70uRfRdLr-7" value="Atlantis" style="verticalLabelPosition=middle;verticalAlign=middle;html=1;shape=mxgraph.basic.patternFillRect;fillStyle=diag;step=5;fillStrokeWidth=0.2;fillStrokeColor=#dddddd;labelPosition=center;align=center;rounded=1;labelBackgroundColor=none;fillColor=#FAE5C7;strokeColor=#0F8B8D;fontColor=#143642;" parent="1" vertex="1">
          <mxGeometry x="873" y="266" width="80" height="24" as="geometry" />
        </mxCell>
        <mxCell id="vYmP_Um6Q3c70uRfRdLr-11" value="docker" style="verticalLabelPosition=middle;verticalAlign=middle;html=1;shape=mxgraph.basic.patternFillRect;fillStyle=diag;step=5;fillStrokeWidth=0.2;fillStrokeColor=#dddddd;labelPosition=center;align=center;rounded=1;labelBackgroundColor=none;fillColor=#FAE5C7;strokeColor=#0F8B8D;fontColor=#143642;" parent="1" vertex="1">
          <mxGeometry x="873" y="294" width="80" height="24" as="geometry" />
        </mxCell>
        <mxCell id="PsxlBRJsRAH7s1QMs9hU-1" value="" style="image;aspect=fixed;html=1;points=[];align=center;fontSize=12;image=img/lib/mscae/Docker.svg;rounded=1;labelBackgroundColor=none;fillColor=#FAE5C7;strokeColor=#0F8B8D;fontColor=#143642;" parent="1" vertex="1">
          <mxGeometry x="889" y="559" width="50" height="41" as="geometry" />
        </mxCell>
        <mxCell id="vYmP_Um6Q3c70uRfRdLr-14" value="Dev" style="shape=umlActor;verticalLabelPosition=bottom;verticalAlign=top;html=1;outlineConnect=0;rounded=1;labelBackgroundColor=none;fillColor=#FFFFFF;strokeColor=#0F8B8D;fontColor=#143642;" parent="1" vertex="1">
          <mxGeometry x="1066" y="239" width="30" height="60" as="geometry" />
        </mxCell>
        <mxCell id="vYmP_Um6Q3c70uRfRdLr-20" value="GitHub" style="dashed=0;outlineConnect=0;html=1;align=center;labelPosition=center;verticalLabelPosition=bottom;verticalAlign=top;shape=mxgraph.weblogos.github;rounded=1;labelBackgroundColor=none;fillColor=#FAE5C7;strokeColor=#0F8B8D;fontColor=#143642;" parent="1" vertex="1">
          <mxGeometry x="102" y="92" width="40" height="40" as="geometry" />
        </mxCell>
        <mxCell id="vYmP_Um6Q3c70uRfRdLr-22" value="" style="shape=image;imageAspect=0;aspect=fixed;verticalLabelPosition=bottom;verticalAlign=top;image=data:image/svg+xml,PHN2ZyB4bWxucz0iaHR0cDovL3d3dy53My5vcmcvMjAwMC9zdmciIGhlaWdodD0iNDhweCIgd2lkdGg9IjQ4cHgiIHZpZXdCb3g9IjAgMCA0OCA0OCI+PHBvbHlnb24gcG9pbnRzPSI0MywzNS4xMTIgNDMsMTMuMzM2IDI0LDIuNDQ3IDUsMTMuMzM2IDUsMzUuMTEyIDI0LDQ2IiBmaWxsPSIjNDNhMDQ3Ii8+PHBhdGggZD0iTTMyLjUsMTNjLTEuMzgxLDAtMi41LDEuMTE5LTIuNSwyLjV2MTEuMjc2TDE4Ljk4NCwxNC40NTNsLTAuMTMxLTAuMTUyIEMxNy42MDksMTIuOTM4LDE2LjE4NywxMywxNS41LDEzYy0xLjM4MSwwLTIuNSwxLjExOS0yLjUsMi41djE3YzAsMS4zODEsMS4xMTksMi41LDIuNSwyLjVzMi41LTEuMTE5LDIuNS0yLjVWMjEuMTQxIGwxMS4yNzgsMTIuNjI3bDAuMTEsMC4xNDJDMzAuNjIsMzUuMTMzLDMyLjI5NSwzNSwzMi41LDM1YzEuMzgxLDAsMi41LTEuMTE5LDIuNS0yLjV2LTE3QzM1LDE0LjExOSwzMy44ODEsMTMsMzIuNSwxM3oiIGZpbGw9IiNmZmYiLz48L3N2Zz4=;rounded=1;labelBackgroundColor=none;fillColor=#FAE5C7;strokeColor=#0F8B8D;fontColor=#143642;" parent="1" vertex="1">
          <mxGeometry x="890" y="378" width="48" height="48" as="geometry" />
        </mxCell>
        <mxCell id="vYmP_Um6Q3c70uRfRdLr-24" value="dockerhub" style="shape=image;imageAspect=0;aspect=fixed;verticalLabelPosition=bottom;verticalAlign=top;image=data:image/svg+xml,PHN2ZyB4bWxucz0iaHR0cDovL3d3dy53My5vcmcvMjAwMC9zdmciIGhlaWdodD0iNDhweCIgd2lkdGg9IjQ4cHgiIHZpZXdCb3g9IjAgMCA0OCA0OCI+PHBhdGggZD0iTTQwLDIwYzAuMzkxLTEuNzM1LTAuMDkyLTMuNzgtMi41LTZjLTMuOTE0LDMuNTQzLTIuNzk1LDcuMjI3LTEuNSw5YzAsMC0wLjE2NiwxLTQsMVMyLDI0LDIsMjRTMC4xNjcsNDAsMTgsNDBjMTUuNTkzLDAsMTkuOTczLTEyLjAwMywyMC44MjgtMTUuMDc2QzM5LjE4MiwyNC45NzIsMzkuNTc5LDI1LjAwMyw0MCwyNWMyLjE0Ny0wLjAxNyw0LjkzLTEuMTcxLDYtNS40ODRDNDMuMTYyLDE4LjUzMyw0MS4zMzksMTguOTc4LDQwLDIweiIgZmlsbD0iIzAzQTlGNCIvPjxwYXRoIGQ9Ik0yLjE2NSwyOEMyLjksMzIuNzM5LDUuOTgzLDQwLDE4LDQwYzEyLjE4NSwwLDE3LjUyMy03LjMzLDE5LjY4Mi0xMkgyLjE2NXoiIGZpbGw9IiMwMjg4RDEiLz48cGF0aCBkPSJNMTkuODEyLDM5LjkzOEMxOC44OTIsMzkuNjE2LDE0Ljc0LDM4Ljg0OCwxNCwzM2MtNC4yMDksMS44NjMtNy45MzgsMS4zNzUtOS41NzksMS4wMDhDNi41ODMsMzcuMjM3LDEwLjU5MSw0MCwxOCw0MEMxOC42MjMsNDAsMTkuMjI0LDM5Ljk3NiwxOS44MTIsMzkuOTM4eiIgZmlsbD0iIzgxRDRGQSIvPjxwYXRoIGQ9Ik0xOCAzMEEyIDIgMCAxIDAgMTggMzRBMiAyIDAgMSAwIDE4IDMwWiIgZmlsbD0iI0ZGRiIvPjxwYXRoIGQ9Ik0xNC45MTQsMzMuNTk3YzAuMjI0LDAuNTA1LDAuMDIsMS4xNjItMC41MSwxLjMxOGMtMy4zMDEsMC45NzMtNi4xNDYsMS4xMDItOC4yOTcsMS4xMDJjLTAuNjQ0LTAuNjE5LTEuMTk0LTEuMjc5LTEuNjU2LTEuOTYzYzIuNTg1LDAsNi43MS0wLjEyLDkuMTQ0LTAuOTY2QzE0LjExNywzMi45MDYsMTQuNjksMzMuMDksMTQuOTE0LDMzLjU5N3ogTTIsMjdjMCwwLDEuODc1LDAuMTI1LDMtMWMxLjg3NSwxLjY4OCw1Ljk0LDEuMDg4LDcsMGMxLjA2MywxLjY4OCw2LjkzOCwxLjM3NSw4LDBjMS4yNSwxLjQzOCw2LjYyNSwxLjc1LDgsMGMwLjQ3OSwxLjQ2MSw2LjgxOSwxLjg3NCw4LDBjMS4wNjEsMS4wODgsNS4wNjMsMS45MzgsNy4zMTEsMEM0My44NzUsMjcuMTg4LDQ2LDI3LDQ2LDI3djFIMiBNMTcsMzJjMCwwLjU1MiwwLjQ0OCwxLDEsMXMxLTAuNDQ4LDEtMXMtMC40NDgtMS0xLTFTMTcsMzEuNDQ4LDE3LDMyeiIgZmlsbD0iIzM3NDc0RiIvPjxwYXRoIGQ9Ik0xMSwyNEg2di01aDVWMjR6IE0yMSwxOWgtNXY1aDVWMTl6IE0zMSwxOWgtNXY1aDVWMTl6IE0xNiwxNGgtNXY1aDVWMTR6IE0yNiwxNGgtNXY1aDVWMTR6IiBmaWxsPSIjMDE1NzlCIi8+PHBhdGggZD0iTTE2LDI0aC01di01aDVWMjR6IE0yNiwxOWgtNXY1aDVWMTl6IE0yNiw5aC01djVoNVY5eiBNMjEsMTRoLTV2NWg1VjE0eiIgZmlsbD0iIzAyODhEMSIvPjwvc3ZnPg==;rounded=1;labelBackgroundColor=none;fillColor=#FAE5C7;strokeColor=#0F8B8D;fontColor=#143642;" parent="1" vertex="1">
          <mxGeometry x="162" y="84" width="48" height="48" as="geometry" />
        </mxCell>
        <mxCell id="vYmP_Um6Q3c70uRfRdLr-25" value="" style="shape=image;imageAspect=0;aspect=fixed;verticalLabelPosition=bottom;verticalAlign=top;image=data:image/svg+xml,PHN2ZyB4bWxucz0iaHR0cDovL3d3dy53My5vcmcvMjAwMC9zdmciIGhlaWdodD0iNDhweCIgd2lkdGg9IjQ4cHgiIHZpZXdCb3g9IjAgMCA0OCA0OCI+PHBhdGggZD0iTTE1LjIsMzMuNWMtMC41LDAuMy04LjIsNS4yLTguMiw1LjVjMCwwLjQsMCwwLjQsMCwwLjRMOC40LDQzaDMxLjJjMCwwLDEuNS00LjgsMS40LTYgYzAtMC42LTUtMy45LTUtMy45czMuOS0zLjksNC0xMi40YzAtMC44LDAtMS42LTAuMS0yLjRDMzkuMiw4LjcsMzMuMSw1LjMsMjYuNyw1Yy02LjUtMC4yLTEwLjEsMi44LTEwLjEsMi44cy00LjEsMS40LTQuNSw0LjcgYzAsMC0zLjIsMC42LTEuNSw3LjFDOS4zLDIwLjYsOSwyMiw5LDIzYzAsMS4zLDAuNCwyLjgsMS4yLDMuN2MxLjcsMS44LDMuMSwxLjQsMy4xLDEuNFMxMy45LDMxLjMsMTUuMiwzMy41eiIgZmlsbD0iI2ZmZTBiMiIvPjxwYXRoIGQ9Ik0zNi44LDM2LjlDMzYuNiwzNS42LDM2LDM1LDM0LjcsMzVoLTAuMWwtMC4xLDBjLTAuNCwwLjEtMSwwLjMtMi43LDEuNWwtMSwwLjcgQzMwLjYsMzcuMSwzMC4zLDM3LDMwLDM3Yy0wLjUsMC0wLjksMC4yLTEuMywwLjVsLTEtMC41TDI2LDM2LjFjLTAuOS0wLjQtMS44LTAuNy0yLjUtMC43Yy0wLjUsMC0wLjksMC4xLTEuMywwLjMgYy0wLjUsMC40LTAuNywxLTAuNiwxLjhjMCwwLjQsMC4xLDAuOSwwLjEsMS4zYzAuMiwyLjEsMC4zLDMuNiwyLjMsMy43YzAuMSwwLDAuMiwwLDAuMywwYzEuMSwwLDIuNC0wLjQsMy42LTEuM2wwLjktMC42IGMwLjMsMC4yLDAuNywwLjQsMS4xLDAuNGMwLjUsMCwwLjktMC4yLDEuMi0wLjRsMS40LDAuM2MwLjYsMC4xLDEuMSwwLjIsMS42LDAuMmwwLjQsMGMwLjUsMCwxLDAsMS41LTAuM2MwLjYtMC4zLDAuOS0xLDAuOS0yLjEgYzAtMC41LTAuMS0xLTAuMS0xLjRMMzYuOCwzNi45eiIgZmlsbD0iI2Y0NDMzNiIvPjxwYXRoIGQ9Ik0yMS43LDM4LjljMC0wLjQtMC4xLTAuOC0wLjEtMS4zYy0wLjEtMC42LDAtMSwwLjItMS40Yy01LTAuMS02LjYtMi43LTYuNi0yLjdzLTAuMywxLjYsMS4xLDMuNCBjMi4xLDIuNSw1LjMsMi44LDUuMywyLjhoMC4yQzIxLjgsMzkuNSwyMS44LDM5LjIsMjEuNywzOC45eiIgZmlsbD0iI2ZmZiIvPjxwYXRoIGQ9Ik0yMi45LDQzbC0wLjctMS40Yy0wLjEtMC4zLTAuMi0wLjYtMC4zLTEuMWwtMC4xLTAuN2wtMC43LTAuMWMtMC45LTAuMi0zLjEtMC44LTQuNy0yLjcgYy0wLjUtMC42LTAuOC0xLjMtMS0yTDE1LDMzLjdsLTEuMSwwLjdjLTIsMS4zLTUuMywzLjQtNi40LDQuM2wtMC42LDAuNUw4LjQsNDNMMjIuOSw0M0wyMi45LDQzeiIgZmlsbD0iIzU0NmU3YSIvPjxwYXRoIGQ9Ik0xMi4yLDQzaDEwLjdsLTAuNy0xLjRjLTAuMS0wLjMtMC4yLTAuNi0wLjMtMS4xbC0wLjEtMC43bC0wLjctMC4xYy0wLjktMC4yLTMuMS0wLjgtNC43LTIuNyBjLTAuMS0wLjEtMC4yLTAuMy0wLjMtMC40TDExLDQwTDEyLjIsNDN6IiBmaWxsPSIjNDU1YTY0Ii8+PHBhdGggZD0iTTQwLjcsMzYuNWMtMC42LTAuNi0yLjQtMS45LTMuMS0yLjRsLTAuNy0wLjVjLTAuMiwwLjItMC42LDAuNy0xLjMsMS4ybDAuNywwLjcgYzAuMywwLjMsMC41LDAuOCwwLjYsMS4zbDAsMC4zYzAuMSwwLjQsMC4xLDAuOSwwLjEsMS40YzAsMS43LTAuNiwyLTAuOSwyLjFjLTAuMiwwLjEtMC41LDAuMi0wLjgsMC4ybDAuMSwyaDQuMWwwLjItMC43IGMwLjUtMS42LDEuMS0zLjksMS4yLTQuOWwwLTAuNUw0MC43LDM2LjV6IiBmaWxsPSIjNTQ2ZTdhIi8+PHBhdGggZD0iTTM5LjYsNDNsMC4yLTAuN2MwLjMtMC44LDAuNS0xLjksMC44LTIuOGwtMy43LTJjMCwwLjMsMC4xLDAuNywwLjEsMS4xYzAsMS43LTAuNiwyLTAuOSwyLjEgYy0wLjIsMC4xLTAuNSwwLjItMC44LDAuMmwwLjEsMkwzOS42LDQzTDM5LjYsNDN6IiBmaWxsPSIjNDU1YTY0Ii8+PHBhdGggZD0iTTEwLjMsMTkuOEMxMC4zLDE5LjgsMTAuNCwxOS43LDEwLjMsMTkuOEwxMC4zLDE5LjhsMC4xLTAuMWMwLjUtMC40LDEuMi0wLjcsMS44LTAuNyBjMC42LDAsMC45LDAuMiwxLjIsMC4zYzEuMywwLjcsMS42LDIsMS43LDIuOWwwLDBsMCwwLjFsMCwwLjFjMC42LTAuMiwxLjItMC40LDEuNC0wLjVjMC0wLjEsMC0wLjMtMC4xLTAuNiBjLTAuMS0wLjQtMC4yLTAuOS0wLjQtMS40Yy0wLjQtMS4xLTAuMy0yLjUsMC4zLTQuM2wwLjEtMC4yYzAuMS0wLjQsMC4zLTAuOCwwLjMtMS4xYzAtMC4zLDAuMS0wLjYsMC4xLTAuN2MwLTAuMy0wLjEtMC41LTAuMi0wLjggbC0wLjItMC41bDAuMy0wLjVjMC45LTEuNSw0LjItNi41LDEwLjktNi41YzAuMiwwLDAuNCwwLDAuNywwbC0wLjIsMEMyNy43LDUuMSwyNy4yLDUsMjYuNyw1Yy0wLjIsMC0wLjUsMC0wLjcsMGwwLDAgYy01LjQsMC04LjcsMi4zLTkuMywyLjdsLTAuMSwwLjFsLTAuMSwwLjFjLTAuNiwwLjItMy43LDEuNS00LjMsNC4yTDEyLDEyLjRsLTAuNCwwLjJjLTAuNCwwLjItMC43LDAuNS0wLjksMC45IGMtMC43LDEuMi0wLjgsMy0wLjMsNS41bDAuMSwwLjVMMTAuMSwyMGMwLDAtMC4xLDAuMS0wLjEsMC4xQzEwLjEsMjAsMTAuMiwxOS45LDEwLjMsMTkuOHoiIGZpbGw9IiM2MTYxNjEiLz48cGF0aCBkPSJNMjggNDFIMzRWNDNIMjh6TTE0LjIgMjIuNGMtLjEtLjktLjQtMS43LTEuMS0yLjEtLjMtLjEtLjUtLjItLjgtLjItLjUgMC0xLjEuMi0xLjYuOWwtLjctMmMuOS0uNSAxLjctLjggMi41LS44LjUgMCAxIC4xIDEuNS4zLjQuMi44LjUgMS4xLjgtLjItMS40LjEtMi45LjUtNC4xLjItLjUuMy0xIC40LTEuMy4xLS42IDAtLjctLjItMS0xLjkuMi0zLjUuNy0zLjUuN2wtLjUtMS45Yy4xIDAgMi4xLS42IDQuNC0uOGwuNy0uMS4zLjZjMCAwIC4xLjEuMS4yLjMuMy43LjkuOCAxLjkgMCAuMiAwIC42LS4xLjktLjEuNS0uMy45LS40IDEuNS0uNCAxLjItLjcgMi42LS4zIDMuNi4yLjYuMyAxLjIuNCAxLjYuMS40LjIgMS4zLS4yIDEuNi0uNC4zLTIuNyAxLTIuNyAxUzE0LjMgMjMuMyAxNC4yIDIyLjR6IiBmaWxsPSIjMjYzMjM4Ii8+PHBhdGggZD0iTTE3LjUsMTIuNmwtMS44LTAuOGMwLTAuMSwzLjctOC4yLDEzLTcuNmwtMC4xLDJDMjAuNiw1LjgsMTcuNSwxMi42LDE3LjUsMTIuNnoiIGZpbGw9IiMyNjMyMzgiLz48cGF0aCBkPSJNMjIsMzYuMmMtNS4xLDAtNi44LTIuNy02LjgtMi43cy0wLjMsMS42LDEuMSwzLjRjMi4xLDIuNSw1LjMsMi44LDUuMywyLjgiIGZpbGw9IiNmZmYiLz48cGF0aCBkPSJNMjEuNSA0MC43Yy0uMSAwLTMuNi0uNC01LjktMy4yLTEuNy0yLjItMS40LTQtMS4zLTQuMmwuNS0yLjYgMS40IDIuM2MuMS4xIDEuNSAyLjIgNS45IDIuMnYyYy0yLjEgMC0zLjctLjQtNC45LTEgMCAwIDAgMCAwIC4xIDEuOCAyLjEgNC41IDIuNCA0LjYgMi40TDIxLjUgNDAuN3pNMzQuNyA0MmMtLjEgMC0uMiAwLS4zIDAtMS44IDAtMy41LS42LTMuNi0uNmwuNy0xLjljMCAwIDEuNC41IDIuOC41bC4xIDBjLjUgMCAxIDAgMS4zLS4xQzM2IDM5LjcgMzYgMzkgMzYgMzguNmMwLS40LS4xLS45LS4xLTEuM2wwLS4zYy0uMS0uOC0uNC0xLjEtMS4yLTEuMS0uNi4xLTIuNSAxLjUtMy4yIDJMMzEgMzguM2wtMS4yLTEuNi40LS4zYzEuOS0xLjQgMy40LTIuNCA0LjQtMi40IDEuOCAwIDIuOSAxIDMuMiAyLjhsMCAuM2MuMS40LjEgMSAuMiAxLjUgMCAxLjUtLjQgMi42LTEuNCAzQzM1LjkgNDIgMzUuMyA0MiAzNC43IDQyeiIgZmlsbD0iIzI2MzIzOCIvPjxwYXRoIGQ9Ik0yNC4zIDQzLjZjLS4xIDAtLjIgMC0uMyAwLTIuOS0uMi0zLjEtMi41LTMuMi00LjYgMC0uNC0uMS0uOC0uMS0xLjItLjItMS42LjUtMi40IDEtMi44IDEuMy0uOSAzLjMtLjUgNC44LjJsMyAxLjYtLjkgMS44LTMtMS42Yy0xLjItLjYtMi40LS43LTIuNy0uNC0uMi4yLS4yLjYtLjIuOS4xLjQuMS45LjEgMS4zLjIgMi40LjQgMi43IDEuNCAyLjggMi4xLjIgNC4yLTEuOCA0LjItMS45bDEuNCAxLjRDMjkuNiA0MS4zIDI3LjIgNDMuNiAyNC4zIDQzLjZ6TTIxIDE1LjRjMCAwLS4yLjYtLjYuNi0uMiAwLS40LS40LS40LS44IDAtMS4yLjgtMi43IDEuNi0zLjQuNi0uNSAxLjQtLjggMi4zLS44LjQgMCAuOSAwIDEuMy4yLjUuMi44LjYuOCAxLjQgMCAwIDAgLjQtMS4zLjQtLjggMC0xLjguMS0yLjIuNUMyMi4xIDEzLjkgMjEuNSAxNC4zIDIxIDE1LjR6TTI2LjQgMjFjLS41IDAtMS4xLS4xLTEuNi0uMi0uNi0uMS0uOS0uNy0uNy0xLjJsLjItLjNjLjEtLjIuMy0uMy41LS4zLjEgMCAuMiAwIC4zIDAgLjguMiAyIC4yIDIuNC4yLS41LTEuOS0uNC0zLjMtLjEtMy4zczEuMSAyLjMgMS41IDIuOGMuNC41LjMgMS4xLS4xIDEuNUMyOC4xIDIwLjggMjcuMyAyMSAyNi40IDIxek0zNi40IDIxYy0uMiAwLS4zIDAtLjUgMC0uNi0uMS0uOS0uNS0uOS0xLjEgMCAwIC4xLS45LjYtLjkuNCAwIC45LjIgMS4xLjJDMzYuNSAxOCAzNi4yIDE2IDM2LjUgMTZjLjMgMCAxIDIuNCAyLjQgMy4zLjQuMy40LjktLjIgMS4zQzM3LjkgMjAuOSAzNy4yIDIxIDM2LjQgMjF6TTM4LjMgMTQuNWMtLjItLjgtMS4xLTEuNS0yLjEtMS44QzM0LjkgMTIuNCAzNCAxMyAzNCAxM2MwLS45LjctMS42IDEtMS43LjQtLjIuNi0uMyAxLS4zIDIuMSAwIDIuOSAxLjMgMy42IDIuNkwzOC4zIDE0LjV6IiBmaWxsPSIjMjYzMjM4Ii8+PHBhdGggZD0iTTMxLjkgMjdjLS4xIDAtLjMgMC0uNCAwIDAgMCAwIDAgMCAwLS43IDAtMS4zLS4yLTEuNy0uNy0uOC0uOS0uOS0yLjEtLjYtMi4zLjMtLjIuNS41IDEuNS44IDAgMCAuNy4xLjkuMS4yIDAgLjMgMCAuNSAwIDEuMyAwIDIuNC0uMyAyLjgtLjZDMzUgMjQuMiAzNSAyNCAzNSAyNGMwIDAgMC0uMy0xLjMtMS41LTEuMy0xLjItMS43LTIuNy0xLjctNCAwLTEuNS4yLTIuNS40LTIuNS4zIDAgLjYgMy4yIDIuNyA1IDEuNSAxLjMgMS45IDIuMiAxLjkgMy4xIDAgLjktLjUgMS40LS44IDEuN0MzNS4xIDI2LjggMzMuMyAyNyAzMS45IDI3ek0zMS40IDMwYy0zLjEtLjEtNC43LTItNC43LTJzMy41LjMgNS44LjNWMzBIMzEuNHpNMzMuNiAzMHYtLjktLjljLjItLjEgMS44LjEgMy42LS42QzM2LjggMjkuNyAzMy43IDMwIDMzLjYgMzB6TTI5LjEgMzNjLTIuMiAwLTMuMy0uNi00LjEtMy4yIDAgMC0uMS0uMi4yLS4zcy40LjEuNC4xYy40IDEuMSAyLjEgMS40IDQuMiAxLjQuMSAwIC4yIDAgLjMgMCAxIDAgMyAwIDMgMHMtLjQgMi0yLjUgMkMzMC4zIDMzIDI5LjMgMzMgMjkuMSAzM3oiIGZpbGw9IiMyNjMyMzgiLz48cGF0aCBkPSJNMjkgMzdjLTMuMiAwLTUuNy0xLTguNC0zLjktMS41LTEuNi0xLjUtMy43LTEuMy0zLjlzLjUgMS4yIDEuNyAyLjVjMi40IDIuNiA1LjggMy40IDguNyAzLjIgMy44LS4zIDUuNC0yLjUgNS43LTIuN2wxLjcgMS4yYy0uMS4xLTIuNCAzLjEtNy4yIDMuNUMyOS41IDM3IDI5LjMgMzcgMjkgMzd6TTEzLjQgMjlsLS4xLTEtLjEtMWMwIDAgLjItLjEuNi0uNC4zLS4yLjYtLjIuOSAwbC41LjRjLjMuMy4zLjggMCAxLjFDMTQuMyAyOC45IDEzLjUgMjkgMTMuNCAyOXpNMTMgMjNsMS42LjZjLS4xLS40LS42LTIuMi0yLTIuNi0uNC0uMS0xLjEuMi0xLjIuOSAwIDAgMCAuMiAwIC4zIDAgMCAwIC4xIDAgLjFDMTEuNSAyNCAxMyAyNSAxMyAyNVYyM3oiIGZpbGw9IiMyNjMyMzgiLz48cGF0aCBkPSJNMzAsNDJjLTEuNywwLTMtMS4zLTMtM3MxLjMtMywzLTNzMywxLjMsMywzUzMxLjcsNDIsMzAsNDJ6IE0zMCwzOGMtMC41LDAtMSwwLjQtMSwxczAuNCwxLDEsMSBzMS0wLjQsMS0xUzMwLjYsMzgsMzAsMzh6IiBmaWxsPSIjMjYzMjM4Ii8+PHBhdGggZD0iTTM5LjYsNDRIOC40Yy0wLjQsMC0wLjgtMC4yLTAuOS0wLjZsLTEuNC0zLjVDNiwzOS42LDYsMzkuNSw2LDM5LjNsMC0wLjRjMC4xLTEsNS43LTQuNSw3LjktNS44IGMtMC43LTEuNS0xLjItMy4xLTEuNC00LjFjLTAuOC0wLjEtMS44LTAuNS0zLTEuN0M4LjQsMjYuMiw4LDI0LjMsOCwyM2MwLTAuOSwwLjItMi40LDEuNC0zLjdjLTAuNi0yLjctMC41LTQuOCwwLjQtNi4yIGMwLjQtMC43LDAuOS0xLDEuMy0xLjNjMC44LTMuMSw0LjEtNC41LDQuOS00LjljMC44LTAuNiw0LjUtMy4xLDEwLjctMi45YzguNCwwLjMsMTMuNiw1LjUsMTQuMiwxNC4yQzQxLDE5LDQxLDE5LjgsNDEsMjAuNiBjMCw2LjUtMi4zLDEwLjUtMy41LDEyLjFjNC41LDMuMSw0LjUsMy42LDQuNSw0LjFjMC4xLDEuMy0xLjEsNS4yLTEuNSw2LjRDNDAuNCw0My43LDQwLDQ0LDM5LjYsNDR6IE05LjEsNDJoMjkuNyBjMC42LTEuOSwxLjEtMy45LDEuMi00LjdjLTAuNi0wLjYtMi43LTIuMi00LjYtMy40Yy0wLjItMC4yLTAuNC0wLjQtMC40LTAuN3MwLjEtMC42LDAuMy0wLjhjMCwwLDMuNi0zLjcsMy43LTExLjcgYzAtMC43LDAtMS41LTAuMS0yLjNDMzguMiw4LDMwLjksNi4yLDI2LjYsNmMtNi0wLjItOS40LDIuNS05LjUsMi42Yy0wLjEsMC4xLTAuMiwwLjEtMC4zLDAuMmMwLDAtMy41LDEuMi0zLjgsMy45IGMtMC4xLDAuNC0wLjQsMC44LTAuOCwwLjljLTAuNywwLjItMS44LDEuNy0wLjcsNS45YzAuMSwwLjQsMCwwLjgtMC4zLDFjLTEsMC44LTEuMSwyLTEuMSwyLjZjMCwxLjIsMC40LDIuNCwxLDMgYzEuMiwxLjMsMi4xLDEuMSwyLjEsMS4xYzAuMy0wLjEsMC42LDAsMC44LDAuMWMwLjIsMC4yLDAuNCwwLjQsMC40LDAuN2MwLDAsMC41LDMuMSwxLjgsNS4xYzAuMSwwLjIsMC4yLDAuNSwwLjEsMC44IGMtMC4xLDAuMy0wLjIsMC41LTAuNSwwLjZjLTAuNywwLjQtNi4zLDQtNy43LDVMOS4xLDQyeiBNNDAuMSwzNy40TDQwLjEsMzcuNEw0MC4xLDM3LjR6IiBmaWxsPSIjMjYzMjM4Ii8+PC9zdmc+;rounded=1;labelBackgroundColor=none;fillColor=#FAE5C7;strokeColor=#0F8B8D;fontColor=#143642;" parent="1" vertex="1">
          <mxGeometry x="889" y="429" width="48" height="48" as="geometry" />
        </mxCell>
        <mxCell id="vYmP_Um6Q3c70uRfRdLr-26" value="" style="shape=image;imageAspect=0;aspect=fixed;verticalLabelPosition=bottom;verticalAlign=top;image=https://www.runatlantis.io/hero.png;rounded=1;labelBackgroundColor=none;fillColor=#FAE5C7;strokeColor=#0F8B8D;fontColor=#143642;" parent="1" vertex="1">
          <mxGeometry x="891" y="489" width="48" height="48" as="geometry" />
        </mxCell>
        <mxCell id="vYmP_Um6Q3c70uRfRdLr-31" value="Demo-app" style="html=1;dashed=0;whitespace=wrap;fillColor=#FAE5C7;strokeColor=#0F8B8D;points=[[0.005,0.63,0],[0.1,0.2,0],[0.9,0.2,0],[0.5,0,0],[0.995,0.63,0],[0.72,0.99,0],[0.5,1,0],[0.28,0.99,0]];verticalLabelPosition=bottom;align=center;verticalAlign=top;shape=mxgraph.kubernetes.icon;prIcon=svc;rounded=1;labelBackgroundColor=none;fontColor=#143642;" parent="1" vertex="1">
          <mxGeometry x="395" y="318" width="40" height="40" as="geometry" />
        </mxCell>
        <mxCell id="vYmP_Um6Q3c70uRfRdLr-33" value="" style="shape=image;imageAspect=0;aspect=fixed;verticalLabelPosition=bottom;verticalAlign=top;image=data:image/svg+xml,PHN2ZyB4bWxuczp4bGluaz0iaHR0cDovL3d3dy53My5vcmcvMTk5OS94bGluayIgeG1sbnM9Imh0dHA6Ly93d3cudzMub3JnLzIwMDAvc3ZnIiB4bWw6c3BhY2U9InByZXNlcnZlIiBzdHlsZT0iZW5hYmxlLWJhY2tncm91bmQ6bmV3IDAgMCA0OCA0ODsiIHZpZXdCb3g9IjAgMCA0OCA0OCIgeT0iMHB4IiB4PSIwcHgiIGlkPSJMYXllcl8xIiB2ZXJzaW9uPSIxLjEiPiYjeGE7PGxpbmVhckdyYWRpZW50IHkyPSI2Ny44NzI4IiB4Mj0iMjMuMzczMSIgeTE9Ii00Ljg2NTIiIHgxPSIyMy4zNzMxIiBncmFkaWVudFVuaXRzPSJ1c2VyU3BhY2VPblVzZSIgaWQ9IlNWR0lEXzFfIj4mI3hhOwk8c3RvcCBzdHlsZT0ic3RvcC1jb2xvcjojRkVEMTAwIiBvZmZzZXQ9IjAiLz4mI3hhOwk8c3RvcCBzdHlsZT0ic3RvcC1jb2xvcjojRkNDQTAwIiBvZmZzZXQ9IjAuMDMzIi8+JiN4YTsJPHN0b3Agc3R5bGU9InN0b3AtY29sb3I6I0YzQTQwMCIgb2Zmc2V0PSIwLjIyMSIvPiYjeGE7CTxzdG9wIHN0eWxlPSJzdG9wLWNvbG9yOiNFQzg2MDEiIG9mZnNldD0iMC40MDgiLz4mI3hhOwk8c3RvcCBzdHlsZT0ic3RvcC1jb2xvcjojRTc3MTAxIiBvZmZzZXQ9IjAuNTkyIi8+JiN4YTsJPHN0b3Agc3R5bGU9InN0b3AtY29sb3I6I0U0NjQwMSIgb2Zmc2V0PSIwLjc3MSIvPiYjeGE7CTxzdG9wIHN0eWxlPSJzdG9wLWNvbG9yOiNFMzYwMDEiIG9mZnNldD0iMC45NDEiLz4mI3hhOzwvbGluZWFyR3JhZGllbnQ+JiN4YTs8cGF0aCBkPSJNNDEuODk5LDIxLjY5N2MtMC4wNzItMC42ODItMC4xNzktMS40NzEtMC4zOTUtMi4zMzFzLTAuNTc0LTEuNzkzLTEuMDQtMi43OTgmIzEwOyYjOTtjLTAuNTAyLTAuOTY4LTEuMTEyLTIuMDA5LTEuOTM3LTIuOTc3Yy0wLjMyMy0wLjM5NS0wLjY4Mi0wLjc1My0xLjA0LTEuMTQ4YzAuNTc0LTIuMjYtMC42ODItNC4yMzMtMC42ODItNC4yMzMmIzEwOyYjOTtjLTIuMTg4LTAuMTQzLTMuNTUxLDAuNjgyLTQuMDUzLDEuMDRjLTAuMDcyLTAuMDM2LTAuMTc5LTAuMDcyLTAuMjUxLTAuMTA4QzMyLjE0Myw5LDMxLjc0OCw4Ljg1NiwzMS4zNTQsOC43MTMmIzEwOyYjOTtjLTAuMzk1LTAuMTA4LTAuNzg5LTAuMjUxLTEuMTg0LTAuMzIzYy0wLjM5NS0wLjEwOC0wLjgyNS0wLjE3OS0xLjI1NS0wLjI1MWMtMC4wNzIsMC0wLjE0My0wLjAzNi0wLjIxNS0wLjAzNiYjMTA7JiM5O2MtMC45MzMtMy4wMTMtMy42NTktNC4zMDQtMy42NTktNC4zMDRjLTMuMTIxLDIuMDA5LTMuNzMsNC42OTktMy43Myw0LjY5OXMwLDAuMDcyLTAuMDM2LDAuMTQzJiMxMDsmIzk7Yy0wLjE3OSwwLjAzNi0wLjMyMywwLjEwOC0wLjUwMiwwLjE0M2MtMC4yMTUsMC4wNzItMC40NjYsMC4xNDMtMC42ODIsMC4yNTFjLTAuMjE1LDAuMTA4LTAuNDY2LDAuMTc5LTAuNjgyLDAuMjg3JiMxMDsmIzk7Yy0wLjQ2NiwwLjIxNS0wLjg5NywwLjQzLTEuMzYzLDAuNjgyYy0wLjQzLDAuMjUxLTAuODYxLDAuNTAyLTEuMjU1LDAuNzg5Yy0wLjA3Mi0wLjAzNi0wLjEwOC0wLjA3Mi0wLjEwOC0wLjA3MiYjMTA7JiM5O2MtNC4xOTctMS42MTQtNy45MjcsMC4zMjMtNy45MjcsMC4zMjNjLTAuMzIzLDQuNDg0LDEuNjg2LDcuMjgxLDIuMDgsNy43ODRjLTAuMTA4LDAuMjg3LTAuMTc5LDAuNTM4LTAuMjg3LDAuODI1JiMxMDsmIzk7Yy0wLjMyMywxLjAwNC0wLjUzOCwyLjA0NS0wLjY4MiwzLjEyMWMtMC4wMzYsMC4xNDMtMC4wMzYsMC4zMjMtMC4wNzIsMC40NjZjLTMuODc0LDEuOTAxLTUuMDIyLDUuODQ3LTUuMDIyLDUuODQ3JiMxMDsmIzk7YzMuMjI4LDMuNzMsNy4wMywzLjk0Niw3LjAzLDMuOTQ2bDAsMGMwLjQ2NiwwLjg2MSwxLjA0LDEuNjg2LDEuNjUsMi40MzljMC4yNTEsMC4zMjMsMC41MzgsMC42MSwwLjgyNSwwLjkzMyYjMTA7JiM5O2MtMS4xODQsMy4zNzIsMC4xNzksNi4yMDUsMC4xNzksNi4yMDVjMy42MjMsMC4xNDMsNS45OS0xLjU3OCw2LjQ5Mi0xLjk3M2MwLjM1OSwwLjEwOCwwLjcxNywwLjIxNSwxLjA3NiwwLjMyMyYjMTA7JiM5O2MxLjExMiwwLjI4NywyLjI2LDAuNDY2LDMuMzcyLDAuNTAyYzAuMjg3LDAsMC41NzQsMCwwLjg2MSwwaDAuMTQzaDAuMTA4aDAuMTc5aDAuMTc5bDAsMGMxLjY4NiwyLjQzOSw0LjY5OSwyLjc2Miw0LjY5OSwyLjc2MiYjMTA7JiM5O2MyLjExNi0yLjI2LDIuMjYtNC40NDgsMi4yNi00Ljk1bDAsMGMwLDAsMCwwLDAtMC4wMzZjMC0wLjAzNiwwLTAuMDcyLDAtMC4wNzJsMCwwYzAtMC4wMzYsMC0wLjA3MiwwLTAuMTA4JiMxMDsmIzk7YzAuNDMtMC4zMjMsMC44NjEtMC42NDYsMS4yOTEtMS4wMDRjMC44NjEtMC43NTMsMS41NzgtMS42NSwyLjIyNC0yLjU4M2MwLjA3Mi0wLjA3MiwwLjEwOC0wLjE3OSwwLjE3OS0wLjI1MSYjMTA7JiM5O2MyLjQwMywwLjE0Myw0LjA4OS0xLjUwNiw0LjA4OS0xLjUwNmMtMC4zOTUtMi41MTEtMS44MjktMy43My0yLjExNi0zLjk0NmwwLDBjMCwwLDAsMC0wLjAzNi0wLjAzNmwtMC4wMzYtMC4wMzZsMCwwbC0wLjAzNi0wLjAzNiYjMTA7JiM5O2MwLTAuMTQzLDAuMDM2LTAuMjg3LDAuMDM2LTAuNDY2YzAuMDM2LTAuMjg3LDAuMDM2LTAuNTM4LDAuMDM2LTAuODI1di0wLjIxNXYtMC4xMDhWMjguMDFjMC0wLjA3MiwwLTAuMDM2LDAtMC4wNzJ2LTAuMTc5di0wLjIxNSYjMTA7JiM5O2MwLTAuMDcyLDAtMC4xNDMsMC0wLjIxNXMwLTAuMTQzLTAuMDM2LTAuMjE1bC0wLjAzNi0wLjIxNWwtMC4wMzYtMC4yMTVjLTAuMDM2LTAuMjg3LTAuMTA4LTAuNTM4LTAuMTQzLTAuODI1JiMxMDsmIzk7Yy0wLjI1MS0xLjA3Ni0wLjY4Mi0yLjExNi0xLjIyLTMuMDEzYy0wLjU3NC0wLjkzMy0xLjI1NS0xLjcyMi0yLjA0NS0yLjQzOWMtMC43ODktMC42ODItMS42NS0xLjI1NS0yLjU4My0xLjY1JiMxMDsmIzk7Yy0wLjkzMy0wLjQzLTEuODY1LTAuNjgyLTIuODM0LTAuNzg5Yy0wLjQ2Ni0wLjA3Mi0wLjk2OC0wLjA3Mi0xLjQzNS0wLjA3MmgtMC4xNzloLTAuMDM2aC0wLjA3MmgtMC4wNzJoLTAuMTc5JiMxMDsmIzk7Yy0wLjA3MiwwLTAuMTQzLDAtMC4xNzksMGMtMC4yNTEsMC4wMzYtMC41MDIsMC4wNzItMC43MTcsMC4xMDhjLTAuOTY4LDAuMTc5LTEuODY1LDAuNTM4LTIuNjU0LDEuMDA0JiMxMDsmIzk7Yy0wLjc4OSwwLjQ2Ni0xLjQ3MSwxLjA3Ni0yLjA0NSwxLjc1OGMtMC41NzQsMC42ODItMS4wMDQsMS4zOTktMS4yOTEsMi4xODhjLTAuMjg3LDAuNzUzLTAuNDY2LDEuNTc4LTAuNTAyLDIuMzMxJiMxMDsmIzk7YzAsMC4xNzksMCwwLjM5NSwwLDAuNTc0YzAsMC4wMzYsMCwwLjEwOCwwLDAuMTQzdjAuMTQzYzAsMC4xMDgsMCwwLjE3OSwwLjAzNiwwLjI4N2MwLjAzNiwwLjM5NSwwLjEwOCwwLjc1MywwLjIxNSwxLjExMiYjMTA7JiM5O2MwLjIxNSwwLjcxNywwLjUzOCwxLjM2MywwLjk2OCwxLjkzN2MwLjQzLDAuNTc0LDAuODk3LDEuMDA0LDEuNDM1LDEuMzYzYzAuNTM4LDAuMzU5LDEuMDY2LDAuNjQ2LDEuNjUsMC43ODkmIzEwOyYjOTtjMS45MzksMC40NzcsNC4xMjUtMC40Myw0LjI2OC0wLjUzOGMwLjAzNi0wLjAzNiwwLjEwOC0wLjA3MiwwLjE0My0wLjEwOGMwLjE3OS0wLjE0MywwLjIxNS0wLjM5NSwwLjA3Mi0wLjU3NCYjMTA7JiM5O2MtMC4xNDMtMC4xNDMtMC4zNTktMC4xNzktMC41MzgtMC4xMDhjLTAuMzE0LDAuMTYtMC42NDMsMC4zNzQtMS40MzUsMC40M2MtMi4wODYsMC4xNS0yLjkwNS0wLjgyNS0zLjIyOC0xLjE0OCYjMTA7JiM5O2MtMC4zNTktMC4zMjMtMC42NDYtMC42ODItMC44OTctMS4xMTJzLTAuMzk1LTAuODk3LTAuNDY2LTEuMzYzYy0wLjAzNi0wLjI1MS0wLjA3Mi0wLjUwMi0wLjAzNi0wLjc1M2MwLTAuMDcyLDAtMC4xNDMsMC0wLjIxNSYjMTA7JiM5O2MwLDAuMDM2LDAsMCwwLDB2LTAuMDM2di0wLjAzNmMwLTAuMDM2LDAtMC4wNzIsMC0wLjEwOGMwLTAuMTQzLDAuMDM2LTAuMjUxLDAuMDcyLTAuMzk1YzAuMTc5LTEuMDc2LDAuNzE3LTIuMTE2LDEuNTQyLTIuOTA1JiMxMDsmIzk7YzAuMjE1LTAuMjE1LDAuNDMtMC4zOTUsMC42ODItMC41MzhjMC4yNTEtMC4xNzksMC41MDItMC4zMjMsMC43NTMtMC40M2MwLjI1MS0wLjEwOCwwLjUzOC0wLjIxNSwwLjgyNS0wLjI4NyYjMTA7JiM5O2MwLjI4Ny0wLjA3MiwwLjU3NC0wLjE0MywwLjg2MS0wLjE0M2MwLjE0MywwLDAuMjg3LTAuMDM2LDAuNDMtMC4wMzZjMC4wMzYsMCwwLjA3MiwwLDAuMTA4LDBoMC4xMDhoMC4wNzJjMC4wMzYsMCwwLDAsMCwwaDAuMDM2JiMxMDsmIzk7aDAuMTA4YzAuMzIzLDAuMDM2LDAuNjQ2LDAuMDcyLDAuOTMzLDAuMTQzYzAuNjEsMC4xNDMsMS4yMiwwLjM1OSwxLjc5MywwLjY4MmMxLjE0OCwwLjY0NiwyLjExNiwxLjYxNCwyLjY5LDIuNzk4JiMxMDsmIzk7YzAuMjg3LDAuNTc0LDAuNTAyLDEuMjIsMC42MSwxLjkwMWMwLjAzNiwwLjE3OSwwLjAzNiwwLjMyMywwLjA3MiwwLjUwMnYwLjEwOHYwLjEwOGMwLDAuMDM2LDAsMC4wNzIsMCwwLjEwOCYjMTA7JiM5O2MwLDAuMDM2LDAsMC4wNzIsMCwwLjEwOHYwLjEwOHYwLjEwOGMwLDAuMDcyLDAsMC4yMTUsMCwwLjI4N2MwLDAuMTc5LTAuMDM2LDAuMzU5LTAuMDM2LDAuNTM4JiMxMDsmIzk7Yy0wLjAzNiwwLjE3OS0wLjAzNiwwLjM1OS0wLjA3MiwwLjUzOGMtMC4wMzYsMC4xNzktMC4wNzIsMC4zNTktMC4xMDgsMC41MzhjLTAuMDcyLDAuMzU5LTAuMjE1LDAuNjgyLTAuMzIzLDEuMDQmIzEwOyYjOTtjLTAuMjUxLDAuNjgyLTAuNjEsMS4zMjctMS4wNCwxLjkwMWMtMC44NjEsMS4xODQtMi4wNDUsMi4xNTItMy4zNzIsMi43NjJjLTAuNjgyLDAuMjg3LTEuMzYzLDAuNTM4LTIuMDgsMC42NDYmIzEwOyYjOTtjLTAuMzU5LDAuMDcyLTAuNzE3LDAuMTA4LTEuMDc2LDAuMTA4SDI2Ljg3aC0wLjA3MmgtMC4xMDhoLTAuMTc5aC0wLjEwOGMwLjAzNiwwLDAsMCwwLDBoLTAuMDM2Yy0wLjE3OSwwLTAuMzk1LDAtMC41NzQtMC4wMzYmIzEwOyYjOTtjLTAuNzg5LTAuMDcyLTEuNTQyLTAuMjE1LTIuMjk2LTAuNDNjLTAuNzUzLTAuMjE1LTEuNDcxLTAuNTAyLTIuMTUyLTAuODYxYy0xLjM2My0wLjcxNy0yLjU4My0xLjc1OC0zLjU1MS0yLjk0MSYjMTA7JiM5O2MtMC40NjYtMC42MS0wLjg5Ny0xLjI1NS0xLjI1NS0xLjkzN3MtMC42MS0xLjM5OS0wLjgyNS0yLjExNmMtMC4yMTUtMC43MTctMC4zMjMtMS40NzEtMC4zNTktMi4yMjR2LTAuMTQzdi0wLjAzNnYtMC4wMzZ2LTAuMDcyJiMxMDsmIzk7VjI1LjMydi0wLjAzNnYtMC4wMzZ2LTAuMDcydi0wLjE3OXYtMC4wMzZsMCwwVjI0Ljg5YzAtMC4xMDgsMC0wLjE3OSwwLTAuMjg3YzAtMC4zNTksMC4wMzYtMC43NTMsMC4xMDgtMS4xNDgmIzEwOyYjOTtjMC4wMzYtMC4zOTUsMC4xMDgtMC43NTMsMC4xNzktMS4xNDhzMC4xNzktMC43NTMsMC4yODctMS4xNDhjMC4yMTUtMC43NTMsMC40NjYtMS40NzEsMC43ODktMi4xNTImIzEwOyYjOTtjMC42NDYtMS4zNjMsMS40NzEtMi41ODMsMi40MzktMy41NTFjMC4yNTEtMC4yNTEsMC41MDItMC40NjYsMC43ODktMC42ODJjMC4xMDgtMC4xMDgsMC4zNTktMC4zMjMsMC42NDYtMC41MDImIzEwOyYjOTtzMC41NzQtMC4zNTksMC44OTctMC41MDJjMC4xNDMtMC4wNzIsMC4yODctMC4xNDMsMC40NjYtMC4yMTVjMC4wNzItMC4wMzYsMC4xNDMtMC4wNzIsMC4yNTEtMC4xMDgmIzEwOyYjOTtjMC4wNzItMC4wMzYsMC4xNDMtMC4wNzIsMC4yNTEtMC4xMDhjMC4zMjMtMC4xNDMsMC42NDYtMC4yNTEsMC45NjgtMC4zNTljMC4wNzItMC4wMzYsMC4xNzktMC4wMzYsMC4yNTEtMC4wNzImIzEwOyYjOTtjMC4wNzItMC4wMzYsMC4xNzktMC4wMzYsMC4yNTEtMC4wNzJjMC4xNzktMC4wMzYsMC4zMjMtMC4wNzIsMC41MDItMC4xNDNjMC4wNzItMC4wMzYsMC4xNzktMC4wMzYsMC4yNTEtMC4wNzImIzEwOyYjOTtjMC4wNzIsMCwwLjE3OS0wLjAzNiwwLjI1MS0wLjAzNmMwLjA3MiwwLDAuMTc5LTAuMDM2LDAuMjUxLTAuMDM2bDAuMTQzLTAuMDM2bDAuMTQzLTAuMDM2YzAuMDcyLDAsMC4xNzktMC4wMzYsMC4yNTEtMC4wMzYmIzEwOyYjOTtjMC4xMDgsMCwwLjE3OS0wLjAzNiwwLjI4Ny0wLjAzNmMwLjA3MiwwLDAuMjE1LTAuMDM2LDAuMjg3LTAuMDM2YzAuMDcyLDAsMC4xMDgsMCwwLjE3OS0wLjAzNmgwLjEwOGgwLjA3MmgwLjA3MiYjMTA7JiM5O2MwLjEwOCwwLDAuMTc5LDAsMC4yODctMC4wMzZoMC4xNDNjMCwwLDAuMDM2LDAsMCwwaDAuMDM2aDAuMDcyYzAuMDcyLDAsMC4xNzksMCwwLjI1MSwwYzAuMzIzLDAsMC42NDYsMCwwLjk2OCwwJiMxMDsmIzk7YzAuNjQ2LDAuMDM2LDEuMjkxLDAuMTA4LDEuOTAxLDAuMjE1YzEuMjIsMC4yMTUsMi40MDMsMC42MSwzLjQ0MywxLjE0OGMxLjA0LDAuNTAyLDIuMDA5LDEuMTQ4LDIuNzk4LDEuODI5JiMxMDsmIzk7YzAuMDM2LDAuMDM2LDAuMTA4LDAuMDcyLDAuMTQzLDAuMTQzYzAuMDM2LDAuMDM2LDAuMTA4LDAuMDcyLDAuMTQzLDAuMTQzYzAuMTA4LDAuMDcyLDAuMTc5LDAuMTc5LDAuMjg3LDAuMjUxJiMxMDsmIzk7YzAuMTA4LDAuMDcyLDAuMTc5LDAuMTc5LDAuMjg3LDAuMjUxYzAuMDcyLDAuMTA4LDAuMTc5LDAuMTc5LDAuMjUxLDAuMjg3YzAuMzU5LDAuMzU5LDAuNjgyLDAuNzUzLDAuOTY4LDEuMTEyJiMxMDsmIzk7YzAuNTc0LDAuNzUzLDEuMDQsMS41MDYsMS4zOTksMi4yMjRjMC4wMzYsMC4wMzYsMC4wMzYsMC4wNzIsMC4wNzIsMC4xNDNjMC4wMzYsMC4wMzYsMC4wMzYsMC4wNzIsMC4wNzIsMC4xNDMmIzEwOyYjOTtjMC4wMzYsMC4wNzIsMC4wNzIsMC4xNzksMC4xNDMsMC4yNTFjMC4wMzYsMC4wNzIsMC4wNzIsMC4xNzksMC4xMDgsMC4yNTFjMC4wMzYsMC4wNzIsMC4wNzIsMC4xNzksMC4xMDgsMC4yNTEmIzEwOyYjOTtjMC4xNDMsMC4zMjMsMC4yNTEsMC42NDYsMC4zNTksMC45NjhjMC4xNzksMC41MDIsMC4yODcsMC45MzMsMC4zOTUsMS4yOTFjMC4wMzYsMC4xNDMsMC4xNzksMC4yNTEsMC4zMjMsMC4yNTEmIzEwOyYjOTtjMC4xNzksMCwwLjI4Ny0wLjE0MywwLjI4Ny0wLjMyM0M0MS45MzUsMjIuNzAyLDQxLjkzNSwyMi4yMzUsNDEuODk5LDIxLjY5N3oiIHN0eWxlPSJmaWxsOnVybCgjU1ZHSURfMV8pOyIvPiYjeGE7PC9zdmc+;rounded=1;labelBackgroundColor=none;fillColor=#FAE5C7;strokeColor=#0F8B8D;fontColor=#143642;" parent="1" vertex="1">
          <mxGeometry x="444" y="674" width="48" height="48" as="geometry" />
        </mxCell>
        <mxCell id="vYmP_Um6Q3c70uRfRdLr-34" value="" style="shape=image;imageAspect=0;aspect=fixed;verticalLabelPosition=bottom;verticalAlign=top;image=data:image/svg+xml,PHN2ZyB4bWxuczp4bGluaz0iaHR0cDovL3d3dy53My5vcmcvMTk5OS94bGluayIgeG1sbnM9Imh0dHA6Ly93d3cudzMub3JnLzIwMDAvc3ZnIiB4bWw6c3BhY2U9InByZXNlcnZlIiBzdHlsZT0iZW5hYmxlLWJhY2tncm91bmQ6bmV3IDAgMCA0OCA0ODsiIHZpZXdCb3g9IjAgMCA0OCA0OCIgeT0iMHB4IiB4PSIwcHgiIGlkPSJMYXllcl8xIiB2ZXJzaW9uPSIxLjEiPiYjeGE7PGNpcmNsZSByPSIyMCIgY3k9IjI0IiBjeD0iMjQiIHN0eWxlPSJmaWxsOiNFNjRBMTk7Ii8+JiN4YTs8Zz4mI3hhOwk8cGF0aCBkPSJNMjkuOTEsMzdjLTAuNDcsMi44NC0yLjk0LDUtNS45MSw1cy01LjQ0LTIuMTYtNS45MS01SDI5LjkxeiBNMzQsMzJIMTR2M2gyMFYzMnogTTMzLjUsMzAmIzEwOyYjOTsmIzk7YzEtMSwyLjUtMy41LDMtNUMzNSwyNS41LDMwLDI2LjUsMzAsMjYuNWMxLTEuNSwyLTMuNSwyLTZjMC0zLjUtNC03LTMtMTEuNWMtMi41LDIuNS0yLjUsNy41LTIuNSw5LjVjLTAuNS0xLjUtMC41LTMtMC41LTQmIzEwOyYjOTsmIzk7YzAtMy0zLTUuNS0yLTguNWMwLDAtMi41LDEtMi41LDRjMCwzLjUtMC41LDUuNS0xLjUsNi41YzAtMy0xLTUtMi41LTUuNWMwLjUsMSwwLjUsMS41LDAuNSwyYzAsMS41LTIuNSw2LTIuNSw5YzAsMiwxLDMuNSwyLjUsNC41JiMxMDsmIzk7JiM5O2MwLDAtNC0xLTYuNS0xLjVjMC41LDEuNSwyLDQsMyw1QzE0LjUsMzAsMzEuNSwzMCwzMy41LDMweiIgc3R5bGU9ImZpbGw6I0ZGRkZGRjsiLz4mI3hhOzwvZz4mI3hhOzwvc3ZnPg==;rounded=1;labelBackgroundColor=none;fillColor=#FAE5C7;strokeColor=#0F8B8D;fontColor=#143642;" parent="1" vertex="1">
          <mxGeometry x="497" y="674" width="48" height="48" as="geometry" />
        </mxCell>
        <mxCell id="vYmP_Um6Q3c70uRfRdLr-36" value="Load Balancer&#xa;k8s-prod.pinbit.ru&#xa;demo.pinbit.ru&#xa;grafana.pinbit.ru" style="shape=image;verticalLabelPosition=bottom;verticalAlign=top;imageAspect=0;aspect=fixed;image=data:image/svg+xml,PHN2ZyB4bWxucz0iaHR0cDovL3d3dy53My5vcmcvMjAwMC9zdmciIHdpZHRoPSIzNiIgaGVpZ2h0PSIzNiIgdmlld0JveD0iMCAwIDM2IDM2IiBmaWxsPSJub25lIj4mI3hhOzxwYXRoIGZpbGwtcnVsZT0iZXZlbm9kZCIgY2xpcC1ydWxlPSJldmVub2RkIiBkPSJNMTggMEMyNy45MzYgMCAzNiA4LjA2MyAzNiAxOEMzNiAyNy45MzcgMjcuOTM2IDM2IDE4IDM2QzguMDY0IDM2IDAgMjcuOTM3IDAgMThDMCA4LjA2MyA4LjA2NCAwIDE4IDBaIiBmaWxsPSIjNTI4MkZGIi8+JiN4YTs8cGF0aCBmaWxsLXJ1bGU9ImV2ZW5vZGQiIGNsaXAtcnVsZT0iZXZlbm9kZCIgZD0iTTIyLjA4NSAyMy45OThIMTguNTAzQzE4LjAyIDI0LjAwNCAxNy41OTYgMjMuODc4IDE3LjMxMyAyMy41NDNDMTcuMDQ3IDIzLjIyNyAxNi45OTYgMjIuODI3IDE3IDIyLjQ5NlYxMi41MDFDMTYuOTk2IDEyLjE3MSAxNy4wNDcgMTEuNzcxIDE3LjMxMyAxMS40NTRDMTcuNTk2IDExLjExOSAxOC4wMiAxMC45OTMgMTguNTAzIDEwLjk5OEgyMi4wODRDMjIuMjAxNiAxMC42NjM5IDIyLjQzMzYgMTAuMzgyMSAyMi43MzkgMTAuMjAyNkMyMy4wNDQ0IDEwLjAyMzEgMjMuNDAzNCA5Ljk1NzUgMjMuNzUyNiAxMC4wMTc0QzI0LjEwMTcgMTAuMDc3MyAyNC40MTg0IDEwLjI1ODggMjQuNjQ2NSAxMC41Mjk4QzI0Ljg3NDcgMTAuODAwOCAyNC45OTk1IDExLjE0MzggMjQuOTk5IDExLjQ5OEMyNC45OTk1IDExLjg1MjMgMjQuODc0NyAxMi4xOTUzIDI0LjY0NjUgMTIuNDY2M0MyNC40MTg0IDEyLjczNzMgMjQuMTAxNyAxMi45MTg4IDIzLjc1MjYgMTIuOTc4N0MyMy40MDM0IDEzLjAzODYgMjMuMDQ0NCAxMi45NzI5IDIyLjczOSAxMi43OTM1QzIyLjQzMzYgMTIuNjE0IDIyLjIwMTYgMTIuMzMyMiAyMi4wODQgMTEuOTk4SDE4LjQ5NkMxOC4xNzYgMTEuOTk0IDE4LjA5NyAxMi4wNzcgMTguMDc3IDEyLjA5OEMxOC4wNDQgMTIuMTQgMTcuOTk2IDEyLjI0NCAxOCAxMi40OTRMMTcuOTk5IDE3TDIyLjA4NCAxNi45OThDMjIuMjkxIDE2LjQxOCAyMi44NDUgMTYuMDAxIDIzLjQ5OSAxNi4wMDFDMjMuNzc0MSAxNi4wMDEyIDI0LjA0MzkgMTYuMDc2OSAyNC4yNzg4IDE2LjIyMDFDMjQuNTEzNyAxNi4zNjMyIDI0LjcwNDggMTYuNTY4MiAyNC44MzEgMTYuODEyN0MyNC45NTcyIDE3LjA1NzEgMjUuMDEzOCAxNy4zMzE1IDI0Ljk5NDYgMTcuNjA2QzI0Ljk3NTQgMTcuODgwNCAyNC44ODEgMTguMTQ0MiAyNC43MjE5IDE4LjM2ODZDMjQuNTYyOCAxOC41OTMxIDI0LjM0NSAxOC43Njk0IDI0LjA5MjQgMTguODc4NEMyMy44Mzk4IDE4Ljk4NzMgMjMuNTYyMSAxOS4wMjQ3IDIzLjI4OTYgMTguOTg2NEMyMy4wMTcyIDE4Ljk0ODIgMjIuNzYwNiAxOC44MzU3IDIyLjU0NzcgMTguNjYxNEMyMi4zMzQ5IDE4LjQ4NzEgMjIuMTc0MiAxOC4yNTc2IDIyLjA4MyAxNy45OThIMThWMjIuNTA0QzE3Ljk5NiAyMi43NTQgMTguMDQ0IDIyLjg1OSAxOC4wNzcgMjIuOUMxOC4wOTcgMjIuOTIxIDE4LjE3NiAyMy4wMDQgMTguNDk2IDIyLjk5OUgyMi4wODZDMjIuMjA0MSAyMi42NjU2IDIyLjQzNjIgMjIuMzg0NiAyMi43NDEzIDIyLjIwNTZDMjMuMDQ2NSAyMi4wMjY3IDIzLjQwNSAyMS45NjE0IDIzLjc1MzcgMjIuMDIxMkMyNC4xMDIzIDIyLjA4MTEgMjQuNDE4NiAyMi4yNjIyIDI0LjY0NjcgMjIuNTMyNkMyNC44NzQ3IDIyLjgwMyAyNC45OTk5IDIzLjE0NTMgMjUgMjMuNDk5QzI1LjAwMDUgMjMuODUzMyAyNC44NzU3IDI0LjE5NjMgMjQuNjQ3NSAyNC40NjczQzI0LjQxOTQgMjQuNzM4MyAyNC4xMDI3IDI0LjkxOTggMjMuNzUzNiAyNC45Nzk3QzIzLjQwNDQgMjUuMDM5NiAyMy4wNDU0IDI0Ljk3MzkgMjIuNzQgMjQuNzk0NUMyMi40MzQ2IDI0LjYxNSAyMi4yMDI2IDI0LjMzMzIgMjIuMDg1IDIzLjk5OVYyMy45OThaTTEyIDIwLjY4N1YxOUgxMC4yODFDMTAuMjA2MyAxOC45OTk1IDEwLjEzNDggMTguOTY5NCAxMC4wODIyIDE4LjkxNjRDMTAuMDI5NSAxOC44NjM0IDEwIDE4Ljc5MTcgMTAgMTguNzE3VjE2LjI4MUMxMCAxNi4xMjUgMTAuMTI3IDE1Ljk5OSAxMC4yODEgMTUuOTk5SDEyVjE0LjMxOUMxMiAxMy45ODkgMTIuMjAxIDEzLjg5OSAxMi40NDggMTQuMTE3TDE1LjgxMyAxNy4xMDdDMTUuODcwNyAxNy4xNTU4IDE1LjkxNzEgMTcuMjE2NiAxNS45NDg5IDE3LjI4NTJDMTUuOTgwNyAxNy4zNTM4IDE1Ljk5NzIgMTcuNDI4NCAxNS45OTcyIDE3LjUwNEMxNS45OTcyIDE3LjU3OTYgMTUuOTgwNyAxNy42NTQzIDE1Ljk0ODkgMTcuNzIyOEMxNS45MTcxIDE3Ljc5MTQgMTUuODcwNyAxNy44NTIyIDE1LjgxMyAxNy45MDFMMTIuNDQ4IDIwLjg5QzEyLjIwMSAyMS4xMDggMTIgMjEuMDE4IDEyIDIwLjY4N1pNMTcgMTcuNDk5QzE3LjAxMyAxNy4zNjUgMTcgMTcuNDMxIDE3IDE3LjQ5OVYxNy40OTlaIiBmaWxsPSJ3aGl0ZSIvPiYjeGE7PC9zdmc+;fontStyle=1;rounded=1;labelBackgroundColor=none;fillColor=#FAE5C7;strokeColor=#0F8B8D;fontColor=#143642;" parent="1" vertex="1">
          <mxGeometry x="288" y="560" width="50" height="50" as="geometry" />
        </mxCell>
        <mxCell id="vYmP_Um6Q3c70uRfRdLr-37" value="ingress-prod-N" style="verticalLabelPosition=middle;verticalAlign=top;html=1;shape=mxgraph.basic.patternFillRect;fillStyle=diag;step=5;fillStrokeWidth=0.2;fillStrokeColor=#dddddd;fillColor=#FAE5C7;strokeColor=#0F8B8D;labelPosition=center;align=center;fontStyle=1;rounded=1;labelBackgroundColor=none;fontColor=#143642;" parent="1" vertex="1">
          <mxGeometry x="384" y="492" width="100" height="170" as="geometry" />
        </mxCell>
        <mxCell id="vYmP_Um6Q3c70uRfRdLr-38" value="&lt;div&gt;Local DNS&lt;/div&gt;" style="verticalLabelPosition=middle;verticalAlign=middle;html=1;shape=mxgraph.basic.patternFillRect;fillStyle=diag;step=5;fillStrokeWidth=0.2;fillStrokeColor=#dddddd;labelPosition=center;align=center;rounded=1;labelBackgroundColor=none;fillColor=#FAE5C7;strokeColor=#0F8B8D;fontColor=#143642;" parent="1" vertex="1">
          <mxGeometry x="394" y="516" width="80" height="24" as="geometry" />
        </mxCell>
        <mxCell id="vYmP_Um6Q3c70uRfRdLr-39" value="&lt;div&gt;API proxy&lt;/div&gt;" style="verticalLabelPosition=middle;verticalAlign=middle;html=1;shape=mxgraph.basic.patternFillRect;fillStyle=diag;step=5;fillStrokeWidth=0.2;fillStrokeColor=#dddddd;labelPosition=center;align=center;rounded=1;labelBackgroundColor=none;fillColor=#FAE5C7;strokeColor=#0F8B8D;fontColor=#143642;" parent="1" vertex="1">
          <mxGeometry x="394" y="545" width="80" height="24" as="geometry" />
        </mxCell>
        <mxCell id="vYmP_Um6Q3c70uRfRdLr-40" value="" style="image;aspect=fixed;html=1;points=[];align=center;fontSize=12;image=img/lib/mscae/Kubernetes.svg;rounded=1;labelBackgroundColor=none;fillColor=#FAE5C7;strokeColor=#0F8B8D;fontColor=#143642;" parent="1" vertex="1">
          <mxGeometry x="704" y="680" width="50" height="48" as="geometry" />
        </mxCell>
        <mxCell id="vYmP_Um6Q3c70uRfRdLr-41" value="ingress-nginx" style="verticalLabelPosition=middle;verticalAlign=middle;html=1;shape=mxgraph.basic.patternFillRect;fillStyle=diag;step=5;fillStrokeWidth=0.2;fillStrokeColor=#dddddd;labelPosition=center;align=center;rounded=1;labelBackgroundColor=none;fillColor=#FAE5C7;strokeColor=#0F8B8D;fontColor=#143642;" parent="1" vertex="1">
          <mxGeometry x="394" y="574" width="80" height="24" as="geometry" />
        </mxCell>
        <mxCell id="vYmP_Um6Q3c70uRfRdLr-42" value="&lt;div&gt;worker-prod-N&lt;/div&gt;" style="verticalLabelPosition=middle;verticalAlign=top;html=1;shape=mxgraph.basic.patternFillRect;fillStyle=diag;step=5;fillStrokeWidth=0.2;fillStrokeColor=#dddddd;fillColor=#FAE5C7;strokeColor=#0F8B8D;labelPosition=center;align=center;fontStyle=1;rounded=1;labelBackgroundColor=none;fontColor=#143642;" parent="1" vertex="1">
          <mxGeometry x="504" y="492" width="100" height="170" as="geometry" />
        </mxCell>
        <mxCell id="vYmP_Um6Q3c70uRfRdLr-43" value="&lt;div&gt;Local DNS&lt;/div&gt;" style="verticalLabelPosition=middle;verticalAlign=middle;html=1;shape=mxgraph.basic.patternFillRect;fillStyle=diag;step=5;fillStrokeWidth=0.2;fillStrokeColor=#dddddd;labelPosition=center;align=center;rounded=1;labelBackgroundColor=none;fillColor=#FAE5C7;strokeColor=#0F8B8D;fontColor=#143642;" parent="1" vertex="1">
          <mxGeometry x="517" y="516" width="80" height="24" as="geometry" />
        </mxCell>
        <mxCell id="vYmP_Um6Q3c70uRfRdLr-44" value="&lt;div&gt;API proxy&lt;/div&gt;" style="verticalLabelPosition=middle;verticalAlign=middle;html=1;shape=mxgraph.basic.patternFillRect;fillStyle=diag;step=5;fillStrokeWidth=0.2;fillStrokeColor=#dddddd;labelPosition=center;align=center;rounded=1;labelBackgroundColor=none;fillColor=#FAE5C7;strokeColor=#0F8B8D;fontColor=#143642;" parent="1" vertex="1">
          <mxGeometry x="517" y="545" width="80" height="24" as="geometry" />
        </mxCell>
        <mxCell id="vYmP_Um6Q3c70uRfRdLr-45" value="&lt;div&gt;Apps&lt;/div&gt;" style="verticalLabelPosition=middle;verticalAlign=middle;html=1;shape=mxgraph.basic.patternFillRect;fillStyle=diag;step=5;fillStrokeWidth=0.2;fillStrokeColor=#dddddd;labelPosition=center;align=center;rounded=1;labelBackgroundColor=none;fillColor=#FAE5C7;strokeColor=#0F8B8D;fontColor=#143642;" parent="1" vertex="1">
          <mxGeometry x="517" y="574" width="80" height="24" as="geometry" />
        </mxCell>
        <mxCell id="vYmP_Um6Q3c70uRfRdLr-46" value="control-prod-N" style="verticalLabelPosition=middle;verticalAlign=top;html=1;shape=mxgraph.basic.patternFillRect;fillStyle=diag;step=5;fillStrokeWidth=0.2;fillStrokeColor=#dddddd;fillColor=#FAE5C7;strokeColor=#0F8B8D;labelPosition=center;align=center;fontStyle=1;rounded=1;labelBackgroundColor=none;fontColor=#143642;" parent="1" vertex="1">
          <mxGeometry x="624" y="492" width="100" height="170" as="geometry" />
        </mxCell>
        <mxCell id="vYmP_Um6Q3c70uRfRdLr-47" value="Core DNS" style="verticalLabelPosition=middle;verticalAlign=middle;html=1;shape=mxgraph.basic.patternFillRect;fillStyle=diag;step=5;fillStrokeWidth=0.2;fillStrokeColor=#dddddd;labelPosition=center;align=center;rounded=1;labelBackgroundColor=none;fillColor=#FAE5C7;strokeColor=#0F8B8D;fontColor=#143642;" parent="1" vertex="1">
          <mxGeometry x="634" y="516" width="80" height="24" as="geometry" />
        </mxCell>
        <mxCell id="vYmP_Um6Q3c70uRfRdLr-48" value="API server" style="verticalLabelPosition=middle;verticalAlign=middle;html=1;shape=mxgraph.basic.patternFillRect;fillStyle=diag;step=5;fillStrokeWidth=0.2;fillStrokeColor=#dddddd;labelPosition=center;align=center;rounded=1;labelBackgroundColor=none;fillColor=#FAE5C7;strokeColor=#0F8B8D;fontColor=#143642;" parent="1" vertex="1">
          <mxGeometry x="634" y="545" width="80" height="24" as="geometry" />
        </mxCell>
        <mxCell id="vYmP_Um6Q3c70uRfRdLr-49" style="edgeStyle=orthogonalEdgeStyle;orthogonalLoop=1;jettySize=auto;html=1;exitX=1;exitY=0.5;exitDx=0;exitDy=0;entryX=0;entryY=0.5;entryDx=0;entryDy=0;entryPerimeter=0;shadow=0;strokeColor=#A8201A;rounded=1;labelBackgroundColor=none;fontColor=default;" parent="1" target="vYmP_Um6Q3c70uRfRdLr-41" edge="1">
          <mxGeometry relative="1" as="geometry">
            <mxPoint x="338" y="586" as="sourcePoint" />
          </mxGeometry>
        </mxCell>
        <mxCell id="vYmP_Um6Q3c70uRfRdLr-50" style="edgeStyle=orthogonalEdgeStyle;rounded=1;orthogonalLoop=1;jettySize=auto;html=1;exitX=1;exitY=0.5;exitDx=0;exitDy=0;exitPerimeter=0;entryX=0;entryY=0.5;entryDx=0;entryDy=0;entryPerimeter=0;labelBackgroundColor=none;strokeColor=#A8201A;fontColor=default;" parent="1" source="vYmP_Um6Q3c70uRfRdLr-43" target="vYmP_Um6Q3c70uRfRdLr-47" edge="1">
          <mxGeometry relative="1" as="geometry" />
        </mxCell>
        <mxCell id="vYmP_Um6Q3c70uRfRdLr-51" style="edgeStyle=orthogonalEdgeStyle;rounded=1;orthogonalLoop=1;jettySize=auto;html=1;exitX=1;exitY=0.5;exitDx=0;exitDy=0;exitPerimeter=0;entryX=0;entryY=0.5;entryDx=0;entryDy=0;entryPerimeter=0;labelBackgroundColor=none;strokeColor=#A8201A;fontColor=default;" parent="1" source="vYmP_Um6Q3c70uRfRdLr-44" target="vYmP_Um6Q3c70uRfRdLr-48" edge="1">
          <mxGeometry relative="1" as="geometry" />
        </mxCell>
        <mxCell id="vYmP_Um6Q3c70uRfRdLr-52" value="" style="edgeStyle=orthogonalEdgeStyle;rounded=1;orthogonalLoop=1;jettySize=auto;html=1;labelBackgroundColor=none;strokeColor=#A8201A;fontColor=default;" parent="1" source="vYmP_Um6Q3c70uRfRdLr-41" target="vYmP_Um6Q3c70uRfRdLr-45" edge="1">
          <mxGeometry relative="1" as="geometry" />
        </mxCell>
        <mxCell id="vYmP_Um6Q3c70uRfRdLr-53" value="" style="html=1;dashed=0;whitespace=wrap;fillColor=#FAE5C7;strokeColor=#0F8B8D;points=[[0.005,0.63,0],[0.1,0.2,0],[0.9,0.2,0],[0.5,0,0],[0.995,0.63,0],[0.72,0.99,0],[0.5,1,0],[0.28,0.99,0]];verticalLabelPosition=bottom;align=center;verticalAlign=top;shape=mxgraph.kubernetes.icon;prIcon=ing;rounded=1;labelBackgroundColor=none;fontColor=#143642;" parent="1" vertex="1">
          <mxGeometry x="409" y="602" width="50" height="48" as="geometry" />
        </mxCell>
        <mxCell id="vYmP_Um6Q3c70uRfRdLr-54" value="" style="html=1;dashed=0;whitespace=wrap;fillColor=#FAE5C7;strokeColor=#0F8B8D;points=[[0.005,0.63,0],[0.1,0.2,0],[0.9,0.2,0],[0.5,0,0],[0.995,0.63,0],[0.72,0.99,0],[0.5,1,0],[0.28,0.99,0]];verticalLabelPosition=bottom;align=center;verticalAlign=top;shape=mxgraph.kubernetes.icon;prIcon=node;rounded=1;labelBackgroundColor=none;fontColor=#143642;" parent="1" vertex="1">
          <mxGeometry x="524" y="602" width="50" height="48" as="geometry" />
        </mxCell>
        <mxCell id="vYmP_Um6Q3c70uRfRdLr-55" value="" style="html=1;dashed=0;whitespace=wrap;fillColor=#FAE5C7;strokeColor=#0F8B8D;points=[[0.005,0.63,0],[0.1,0.2,0],[0.9,0.2,0],[0.5,0,0],[0.995,0.63,0],[0.72,0.99,0],[0.5,1,0],[0.28,0.99,0]];verticalLabelPosition=bottom;align=center;verticalAlign=top;shape=mxgraph.kubernetes.icon;prIcon=master;rounded=1;labelBackgroundColor=none;fontColor=#143642;" parent="1" vertex="1">
          <mxGeometry x="644" y="598" width="50" height="48" as="geometry" />
        </mxCell>
        <mxCell id="vYmP_Um6Q3c70uRfRdLr-56" value="Demo-app" style="html=1;dashed=0;whitespace=wrap;fillColor=#FAE5C7;strokeColor=#0F8B8D;points=[[0.005,0.63,0],[0.1,0.2,0],[0.9,0.2,0],[0.5,0,0],[0.995,0.63,0],[0.72,0.99,0],[0.5,1,0],[0.28,0.99,0]];verticalLabelPosition=bottom;align=center;verticalAlign=top;shape=mxgraph.kubernetes.icon;prIcon=svc;rounded=1;labelBackgroundColor=none;fontColor=#143642;" parent="1" vertex="1">
          <mxGeometry x="392" y="678" width="40" height="40" as="geometry" />
        </mxCell>
        <mxCell id="vYmP_Um6Q3c70uRfRdLr-58" value="" style="shape=flexArrow;endArrow=classic;startArrow=classic;html=1;rounded=1;labelBackgroundColor=none;strokeColor=#A8201A;fontColor=default;" parent="1" edge="1">
          <mxGeometry width="100" height="100" relative="1" as="geometry">
            <mxPoint x="769" y="269" as="sourcePoint" />
            <mxPoint x="829" y="269" as="targetPoint" />
          </mxGeometry>
        </mxCell>
        <mxCell id="vYmP_Um6Q3c70uRfRdLr-59" value="" style="shape=flexArrow;endArrow=classic;startArrow=classic;html=1;rounded=1;labelBackgroundColor=none;strokeColor=#A8201A;fontColor=default;" parent="1" edge="1">
          <mxGeometry width="100" height="100" relative="1" as="geometry">
            <mxPoint x="769" y="558" as="sourcePoint" />
            <mxPoint x="829" y="558" as="targetPoint" />
          </mxGeometry>
        </mxCell>
        <mxCell id="vYmP_Um6Q3c70uRfRdLr-68" value="" style="group" parent="1" vertex="1" connectable="0">
          <mxGeometry x="125" y="376" width="35" height="50" as="geometry" />
        </mxCell>
        <mxCell id="vYmP_Um6Q3c70uRfRdLr-65" value="" style="shape=umlActor;verticalLabelPosition=bottom;verticalAlign=top;html=1;outlineConnect=0;rounded=1;labelBackgroundColor=none;fillColor=#FFFFFF;strokeColor=#0F8B8D;fontColor=#143642;aspect=fixed;" parent="vYmP_Um6Q3c70uRfRdLr-68" vertex="1">
          <mxGeometry x="20" y="20" width="28" height="56" as="geometry" />
        </mxCell>
        <mxCell id="vYmP_Um6Q3c70uRfRdLr-69" value="" style="shape=umlActor;verticalLabelPosition=bottom;verticalAlign=top;html=1;outlineConnect=0;rounded=1;labelBackgroundColor=none;fillColor=#FFFFFF;strokeColor=#0F8B8D;fontColor=#143642;aspect=fixed;" parent="1" vertex="1">
          <mxGeometry x="155" y="406" width="28" height="56" as="geometry" />
        </mxCell>
        <mxCell id="vYmP_Um6Q3c70uRfRdLr-71" value="" style="shape=flexArrow;endArrow=classic;startArrow=classic;html=1;rounded=1;labelBackgroundColor=none;strokeColor=#A8201A;fontColor=default;" parent="1" edge="1">
          <mxGeometry width="100" height="100" relative="1" as="geometry">
            <mxPoint x="170" y="390" as="sourcePoint" />
            <mxPoint x="250" y="300" as="targetPoint" />
          </mxGeometry>
        </mxCell>
        <mxCell id="vYmP_Um6Q3c70uRfRdLr-72" value="" style="shape=flexArrow;endArrow=classic;startArrow=classic;html=1;rounded=1;labelBackgroundColor=none;strokeColor=#A8201A;fontColor=default;" parent="1" edge="1">
          <mxGeometry width="100" height="100" relative="1" as="geometry">
            <mxPoint x="259.99999999999955" y="574" as="sourcePoint" />
            <mxPoint x="179.99999999999955" y="484" as="targetPoint" />
          </mxGeometry>
        </mxCell>
        <mxCell id="byI5D_hFMldbp_djkMtL-1" value="" style="shape=image;imageAspect=0;aspect=fixed;verticalLabelPosition=bottom;verticalAlign=top;image=data:image/svg+xml,PHN2ZyB4bWxucz0iaHR0cDovL3d3dy53My5vcmcvMjAwMC9zdmciIGZpbGw9Im5vbmUiIHZpZXdCb3g9IjAgMCAyMTQgMzIiIGhlaWdodD0iMzIiIHdpZHRoPSIyMTQiPiYjeGE7PHBhdGggZmlsbD0iIzI2MjYyNiIgZD0iTTEyLjcxNzUgMjcuMjVWMjMuNDE1QzEyLjcxNzUgMjAuNTIyNSAxMi4zNiAxOS42Nzc1IDExLjI1NSAxNy4yNzI1TDUuNDcgNC42NjI1MUgxLjM3NUw4Ljc4NSAyMC43ODI1VjI3LjI1SDEyLjcxNzVaTTE1LjI4NSAxNS41ODI1TDIwLjA5NSA0LjY2MjUxSDE2LjA5NzVMMTEuMjg3NSAxNS41ODI1SDE1LjI4NVpNNTYuMzY1IDI3LjU3NUM1OC4xODUgMjcuNTc1IDU5LjY4IDI2LjczIDYwLjcyIDI1LjEzNzVMNjAuOTE1IDI3LjI1SDY0LjQ5VjQuNjYyNTFINjAuNjIyNVYxMi44MkM1OS42NDc1IDExLjM1NzUgNTguMjE3NSAxMC41Nzc1IDU2LjUyNzUgMTAuNTc3NUM1Mi43OSAxMC41Nzc1IDUwLjE5IDEzLjczIDUwLjE5IDE5LjE5QzUwLjE5IDI0LjU4NSA1Mi43MjUgMjcuNTc1IDU2LjM2NSAyNy41NzVaTTgwLjEyMjUgMjYuMTQ1VjIyLjk5MjVDNzguOTIgMjMuODA1IDc2LjkwNSAyNC41MiA3NS4wMiAyNC41MkM3Mi4xOTI1IDI0LjUyIDcxLjEyIDIzLjE4NzUgNzAuOTU3NSAyMC40NTc1SDgwLjI4NVYxOC40MUM4MC4yODUgMTIuNzIyNSA3Ny43ODI1IDEwLjU3NzUgNzMuOTE1IDEwLjU3NzVDNjkuMjAyNSAxMC41Nzc1IDY2Ljk2IDE0LjE4NSA2Ni45NiAxOS4xMjVDNjYuOTYgMjQuODEyNSA2OS43NTUgMjcuNTc1IDc0LjY5NSAyNy41NzVDNzcuMTY1IDI3LjU3NSA3OC45ODUgMjYuOTI1IDgwLjEyMjUgMjYuMTQ1Wk0zMS40NyAxNi4xMDI1QzMxLjQ3IDEyLjEzNzUgMjkuNDU1IDEwLjY0MjUgMjUuMzYgMTAuNjQyNUMyMi44MjUgMTAuNjQyNSAyMC43Nzc1IDExLjcxNSAxOS42MDc1IDEyLjU2VjE1LjkwNzVDMjAuODQyNSAxNC45IDIyLjcyNzUgMTMuNzMgMjQuOTA1IDEzLjczQzI2Ljc1NzUgMTMuNzMgMjcuNjAyNSAxNC4zOCAyNy42MDI1IDE2LjEzNVYxNy4xNzVIMjYuOTg1QzIxLjA3IDE3LjE3NSAxOC40Mzc1IDE5LjA5MjUgMTguNDM3NSAyMi41MDVDMTguNDM3NSAyNS42NTc1IDIwLjQ1MjUgMjcuNDc3NSAyMy40NDI1IDI3LjQ3NzVDMjUuNzE3NSAyNy40Nzc1IDI2LjY5MjUgMjYuNzMgMjcuNDQgMjUuOTVIMjcuNjAyNUMyNy42MzUgMjYuMzcyNSAyNy43NjUgMjYuOTI1IDI3Ljg5NSAyNy4yNUgzMS42NjVDMzEuNTM1IDI1LjkxNzUgMzEuNDcgMjQuNTg1IDMxLjQ3IDIzLjI1MjVWMTYuMTAyNVpNMzguNDkgMTUuNTE3NUMzOS4yMDUgMTQuNjQgNDAuMzQyNSAxMy44OTI1IDQxLjc0IDEzLjg5MjVDNDMuMTA1IDEzLjg5MjUgNDMuNzIyNSAxNC40Nzc1IDQzLjcyMjUgMTUuNzEyNVYyNy4yNUg0Ny41OVYxNS4zMjI1QzQ3LjU5IDEyLjA3MjUgNDYuMjkgMTAuNjQyNSA0My4xMzc1IDEwLjY0MjVDNDAuODMgMTAuNjQyNSAzOS40NjUgMTEuNDg3NSAzOC42ODUgMTIuMjY3NUgzOC40OUwzOC4zOTI1IDEwLjkwMjVIMzQuNjIyNVYyNy4yNUgzOC40OVYxNS41MTc1Wk05Mi4wMTc1IDI3LjI1SDk2LjM3MjVMOTEuMDQyNSAxOC44MzI1TDk1LjY1NzUgMTAuOTAyNUg5MS43OUw4OC45OTUgMTUuODQyNUw4NS44NzUgMTAuOTAyNUg4MS41Mkw4Ni40NiAxOC43MzVMODEuMzI1IDI3LjI1SDg1LjI1NzVMODguNTQgMjEuNzI1TDkyLjAxNzUgMjcuMjVaTTU3LjUwMjUgMTMuNjMyNUM1OS41ODI1IDEzLjYzMjUgNjAuNjIyNSAxNS4yOSA2MC42MjI1IDE5LjA2QzYwLjYyMjUgMjIuODYyNSA1OS41MTc1IDI0LjUyIDU3LjM0IDI0LjUyQzU1LjIyNzUgMjQuNTIgNTQuMTg3NSAyMi44OTUgNTQuMTg3NSAxOS4xOUM1NC4xODc1IDE1LjMyMjUgNTUuMjkyNSAxMy42MzI1IDU3LjUwMjUgMTMuNjMyNVpNNzMuODUgMTMuNjMyNUM3NS43Njc1IDEzLjYzMjUgNzYuMzUyNSAxNS4yMjUgNzYuMzUyNSAxNy4yNzI1VjE3LjU5NzVINzAuOTU3NUM3MS4wNTUgMTQuOTk3NSA3MS45OTc1IDEzLjYzMjUgNzMuODUgMTMuNjMyNVpNMjcuNjAyNSAyMy4zNUMyNy4xMTUgMjQuMDY1IDI2LjIwNSAyNC42NSAyNC44NCAyNC42NUMyMy4yMTUgMjQuNjUgMjIuNDAyNSAyMy43MDc1IDIyLjQwMjUgMjIuMjc3NUMyMi40MDI1IDIwLjM5MjUgMjMuNzM1IDE5Ljc0MjUgMjcuMDUgMTkuNzQyNUgyNy42MDI1VjIzLjM1WiIvPiYjeGE7PGcgY2xpcC1wYXRoPSJ1cmwoI2NsaXAwXzExNTRfMTI3MzIpIj4mI3hhOzxwYXRoIGZpbGw9IndoaXRlIiBkPSJNMTA3LjUgMTZDMTA3LjUgMTAuNDc3MiAxMTEuOTc3IDYgMTE3LjUgNkMxMjMuMDIzIDYgMTI3LjUgMTAuNDc3MiAxMjcuNSAxNkMxMjcuNSAyMS41MjI4IDEyMy4wMjMgMjYgMTE3LjUgMjZDMTExLjk3NyAyNiAxMDcuNSAyMS41MjI4IDEwNy41IDE2WiIvPiYjeGE7PHBhdGggZmlsbD0idXJsKCNwYWludDBfbGluZWFyXzExNTRfMTI3MzIpIiBkPSJNMTE3LjUgMzFDMTEzLjc3MiAzMC45MDk5IDExMi4yOTcgMjguNDE4MiAxMTEuODQ3IDI2LjAxMTlDMTExLjYwMiAyNC43MDM2IDExMS43MDkgMjIuNTI4NSAxMTEuODQ3IDIxLjc1MjFDMTEyLjA3IDIwLjQ4NjcgMTEyLjQzIDE4LjY2OCAxMTIuODI5IDE2LjU1NzZDMTEzLjM5OSAxMy41MzM2IDExNC45MTMgMTEuODEzNiAxMTguMTgyIDExLjIwMDJMMTIzLjUyOCAxMC4xNzkyQzEyMy42NyA5LjM4NTYzIDEyMy45MzggNy4yODM5NiAxMjMuNjk0IDUuOTg4NTZDMTIzLjIzOSAzLjU1NjQ4IDEyMS4zNjUgMS4wMzg2MSAxMTcuNTYgMS4wMDAwMUMxMDkuMjczIDEuMDAwMDEgMTAyLjUgNy43MTI5IDEwMi41IDE2QzEwMi41IDI0LjI4NzEgMTA5LjIxMyAzMSAxMTcuNSAzMVoiLz4mI3hhOzxwYXRoIGZpbGw9InVybCgjcGFpbnQxX2xpbmVhcl8xMTU0XzEyNzMyKSIgZD0iTTExNy41IDFDMTIxLjIyNyAxLjA5MDA4IDEyMy4wNzIgMy41ODY1IDEyMy41MjIgNS45OTI4NUMxMjMuNzY3IDcuMzAxMTIgMTIzLjI5MSA5LjQ3MTU1IDEyMy4xNTMgMTAuMjQ3OUMxMjIuOTMgMTEuNTEzMyAxMjIuNTcgMTMuMzMyIDEyMi4xNzEgMTUuNDQyNEMxMjEuNjAxIDE4LjQ2NjQgMTIwLjA4NiAyMC4xODY0IDExNi44MTggMjAuNzk5OEwxMTEuODQzIDIxLjc3NjZDMTExLjcwMSAyMi41NzAyIDExMS4yMzQgMjQuNzE0OSAxMTEuNDc4IDI2LjAxMDNDMTExLjkzMyAyOC40NDI0IDExMy42MzUgMzAuOTYxNCAxMTcuNDQgMzFDMTI1LjcyNyAzMSAxMzIuNSAyNC4yODcxIDEzMi41IDE2QzEzMi41IDcuNzEyOSAxMjUuNzg3IDEgMTE3LjUgMVoiLz4mI3hhOzwvZz4mI3hhOzxwYXRoIGZpbGw9IiMyNjI2MjYiIGQ9Ik0xNDcuNDQ1IDI3LjU3NUMxNDkuODgyIDI3LjU3NSAxNTEuNTQgMjYuNjk3NSAxNTIuNTQ3IDI2LjAxNVYyMi44NjI1QzE1MS4yNDcgMjMuODA1IDE0OS44MTcgMjQuNTIgMTQ3LjczNyAyNC41MkMxNDQuMTYyIDI0LjUyIDE0Mi40NzIgMjEuNjI3NSAxNDIuNDcyIDE1Ljk3MjVDMTQyLjQ3MiAxMC4xNTUgMTQ0LjA5NyA3LjM5MjUgMTQ3LjkzMiA3LjM5MjVDMTQ5LjcyIDcuMzkyNSAxNTEuMzc3IDguMTcyNSAxNTIuNTQ3IDguOTJWNS43Njc0OUMxNTEuNTA3IDUuMDE5OTkgMTQ5LjgxNyA0LjMzNzQ5IDE0Ny43MzcgNC4zMzc0OUMxNDEuNzI1IDQuMzM3NDkgMTM4LjQ3NSA4Ljc1NzUgMTM4LjQ3NSAxNS45NzI1QzEzOC40NzUgMjMuMzgyNSAxNDEuODU1IDI3LjU3NSAxNDcuNDQ1IDI3LjU3NVoiLz4mI3hhOzxwYXRoIGZpbGw9IiMyNjI2MjYiIGQ9Ik0xNTkuMDIgNC42NjI0OUgxNTUuMTUzVjI3LjI1SDE1OS4wMlY0LjY2MjQ5WiIvPiYjeGE7PHBhdGggZmlsbD0iIzI2MjYyNiIgZD0iTTE2OC44MjcgMTAuNTc3NUMxNjQuNTcgMTAuNTc3NSAxNjEuNjEyIDEzLjYgMTYxLjYxMiAxOS4wOTI1QzE2MS42MTIgMjQuNTUyNSAxNjQuNTcgMjcuNTc1IDE2OC44MjcgMjcuNTc1QzE3My4wODUgMjcuNTc1IDE3Ni4wNDIgMjQuNTUyNSAxNzYuMDQyIDE5LjA2QzE3Ni4wNDIgMTMuNiAxNzMuMDg1IDEwLjU3NzUgMTY4LjgyNyAxMC41Nzc1Wk0xNjguODI3IDI0LjUyQzE2Ni42ODIgMjQuNTIgMTY1LjYxIDIyLjg2MjUgMTY1LjYxIDE5LjA5MjVDMTY1LjYxIDE1LjI5IDE2Ni42ODIgMTMuNjMyNSAxNjguODI3IDEzLjYzMjVDMTcwLjk3MiAxMy42MzI1IDE3Mi4wNDUgMTUuMjkgMTcyLjA0NSAxOS4wNkMxNzIuMDQ1IDIyLjg2MjUgMTcwLjk3MiAyNC41MiAxNjguODI3IDI0LjUyWiIvPiYjeGE7PHBhdGggZmlsbD0iIzI2MjYyNiIgZD0iTTE4Ny41NzcgMjIuNjM1QzE4Ni44NjIgMjMuNTEyNSAxODUuNzI0IDI0LjI2IDE4NC4zMjcgMjQuMjZDMTgyLjk2MiAyNC4yNiAxODIuMzQ0IDIzLjY3NSAxODIuMzQ0IDIyLjQ0VjEwLjkwMjVIMTc4LjQ3N1YyMi44M0MxNzguNDc3IDI2LjA4IDE3OS43NzcgMjcuNTEgMTgyLjkyOSAyNy41MUMxODUuMjM3IDI3LjUxIDE4Ni42MDIgMjYuNjY1IDE4Ny4zODIgMjUuODg1SDE4Ny41NzdMMTg3LjY3NCAyNy4yNUgxOTEuNDQ0VjEwLjkwMjVIMTg3LjU3N1YyMi42MzVaIi8+JiN4YTs8cGF0aCBmaWxsPSIjMjYyNjI2IiBkPSJNMjAwLjIyNCAyNy41NzVDMjAyLjA0NCAyNy41NzUgMjAzLjUzOSAyNi43MyAyMDQuNTc5IDI1LjEzNzVMMjA0Ljc3NCAyNy4yNUgyMDguMzQ5VjQuNjYyNDlIMjA0LjQ4MVYxMi44MkMyMDMuNTA2IDExLjM1NzUgMjAyLjA3NiAxMC41Nzc1IDIwMC4zODYgMTAuNTc3NUMxOTYuNjQ5IDEwLjU3NzUgMTk0LjA0OSAxMy43MyAxOTQuMDQ5IDE5LjE5QzE5NC4wNDkgMjQuNTg1IDE5Ni41ODQgMjcuNTc1IDIwMC4yMjQgMjcuNTc1Wk0yMDEuMzYxIDEzLjYzMjVDMjAzLjQ0MSAxMy42MzI1IDIwNC40ODEgMTUuMjkgMjA0LjQ4MSAxOS4wNkMyMDQuNDgxIDIyLjg2MjUgMjAzLjM3NiAyNC41MiAyMDEuMTk5IDI0LjUyQzE5OS4wODYgMjQuNTIgMTk4LjA0NiAyMi44OTUgMTk4LjA0NiAxOS4xOUMxOTguMDQ2IDE1LjMyMjUgMTk5LjE1MSAxMy42MzI1IDIwMS4zNjEgMTMuNjMyNVoiLz4mI3hhOzxkZWZzPiYjeGE7PGxpbmVhckdyYWRpZW50IGdyYWRpZW50VW5pdHM9InVzZXJTcGFjZU9uVXNlIiB5Mj0iMi42ODE0NCIgeDI9IjEyNi4xMDgiIHkxPSIzMSIgeDE9IjEwMi41IiBpZD0icGFpbnQwX2xpbmVhcl8xMTU0XzEyNzMyIj4mI3hhOzxzdG9wIHN0b3AtY29sb3I9IiNEMkRGRkYiLz4mI3hhOzxzdG9wIHN0b3AtY29sb3I9IiM0RTdGRkYiIG9mZnNldD0iMSIvPiYjeGE7PC9saW5lYXJHcmFkaWVudD4mI3hhOzxsaW5lYXJHcmFkaWVudCBncmFkaWVudFVuaXRzPSJ1c2VyU3BhY2VPblVzZSIgeTI9IjI4LjQ4MTciIHgyPSIxMDguNTIyIiB5MT0iMC45OTk5OTkiIHgxPSIxMzIuNSIgaWQ9InBhaW50MV9saW5lYXJfMTE1NF8xMjczMiI+JiN4YTs8c3RvcCBzdG9wLWNvbG9yPSIjRDJERkZGIi8+JiN4YTs8c3RvcCBzdG9wLWNvbG9yPSIjNEU3RkZGIiBvZmZzZXQ9IjEiLz4mI3hhOzwvbGluZWFyR3JhZGllbnQ+JiN4YTs8Y2xpcFBhdGggaWQ9ImNsaXAwXzExNTRfMTI3MzIiPiYjeGE7PHJlY3QgdHJhbnNmb3JtPSJ0cmFuc2xhdGUoMTAyLjUgMSkiIGZpbGw9IndoaXRlIiBoZWlnaHQ9IjMwIiB3aWR0aD0iMzAiLz4mI3hhOzwvY2xpcFBhdGg+JiN4YTs8L2RlZnM+JiN4YTs8L3N2Zz4=;" parent="1" vertex="1">
          <mxGeometry x="572" y="46" width="173.86" height="26" as="geometry" />
        </mxCell>
        <mxCell id="vYmP_Um6Q3c70uRfRdLr-70" value="" style="shape=umlActor;verticalLabelPosition=bottom;verticalAlign=top;html=1;outlineConnect=0;rounded=1;labelBackgroundColor=none;fillColor=#FFFFFF;strokeColor=#0F8B8D;fontColor=#143642;aspect=fixed;" parent="1" vertex="1">
          <mxGeometry x="165" y="416" width="28" height="56" as="geometry" />
        </mxCell>
        <mxCell id="xBkl0_F1HLlUEgpcLeGl-1" value="sshd" style="verticalLabelPosition=middle;verticalAlign=middle;html=1;shape=mxgraph.basic.patternFillRect;fillStyle=diag;step=5;fillStrokeWidth=0.2;fillStrokeColor=#dddddd;labelPosition=center;align=center;rounded=1;labelBackgroundColor=none;fillColor=#FAE5C7;strokeColor=#0F8B8D;fontColor=#143642;" vertex="1" parent="1">
          <mxGeometry x="873" y="324" width="80" height="24" as="geometry" />
        </mxCell>
        <mxCell id="xBkl0_F1HLlUEgpcLeGl-2" value="Bastion" style="shape=image;imageAspect=0;aspect=fixed;verticalLabelPosition=bottom;verticalAlign=top;image=data:image/svg+xml,PHN2ZyB4bWxucz0iaHR0cDovL3d3dy53My5vcmcvMjAwMC9zdmciIHdpZHRoPSIzMiIgdmlld0JveD0iMCAwIDMyIDMyIiBpZD0iaWNvbiIgaGVpZ2h0PSIzMiI+PGRlZnM+PHN0eWxlPiYjeGE7ICAgICAgLmNscy0xIHsmI3hhOyAgICAgICAgZmlsbDogbm9uZTsmI3hhOyAgICAgIH0mI3hhOyAgICA8L3N0eWxlPjwvZGVmcz48cGF0aCB0cmFuc2Zvcm09InRyYW5zbGF0ZSgwIDApIiBkPSJNMjcuNTI3MywyLjcwOUExLjk5NTUsMS45OTU1LDAsMCwwLDI2LDJIMjMuMzA5MWExLjUsMS41LDAsMCwwLTEuMzQxOS44Mjk0TDIxLjM4MTgsNEgyMFYzLjVBMS41LDEuNSwwLDAsMCwxOC41LDJoLTVBMS41LDEuNSwwLDAsMCwxMiwzLjVWNEgxMC42MTgybC0uNTg1LTEuMTdBMS41MDE3LDEuNTAxNywwLDAsMCw4LjY5LDJINkEyLDIsMCwwLDAsNC4wMjgzLDQuMzMzTDQuNzMyNCw4LjVBMywzLDAsMCwwLDcuNjksMTFIOFYyM2EzLjAwMzMsMy4wMDMzLDAsMCwwLTMsM3Y0SDI3VjI2YTMuMDAzMywzLjAwMzMsMCwwLDAtMy0zVjExaC4zMWEzLDMsMCwwLDAsMi45NTc5LTIuNWwuNzA0MS00LjE2N0ExLjk5NCwxLjk5NCwwLDAsMCwyNy41MjczLDIuNzA5Wk0yNSwyNnYySDdWMjZhMS4wMDA5LDEuMDAwOSwwLDAsMSwxLTFIMjRBMS4wMDA5LDEuMDAwOSwwLDAsMSwyNSwyNlptLTMtM0gxMFYxMUgyMlpNMjUuMjk1OSw4LjE2N0EuOTk3Ni45OTc2LDAsMCwxLDI0LjMxLDlINy42OWEuOTk3Ni45OTc2LDAsMCwxLS45ODYzLS44MzM1TDYsNEg4LjM4MThsMSwySDE0VjRoNFY2aDQuNjE3MmwxLjAwMS0ySDI2WiIvPjxyZWN0IHdpZHRoPSIzMiIgaWQ9Il9UcmFuc3BhcmVudF9SZWN0YW5nbGVfIiBoZWlnaHQ9IjMyIiBkYXRhLW5hbWU9IiZsdDtUcmFuc3BhcmVudCBSZWN0YW5nbGUmZ3Q7IiBjbGFzcz0iY2xzLTEiLz48L3N2Zz4=;" vertex="1" parent="1">
          <mxGeometry x="899" y="618" width="32" height="32" as="geometry" />
        </mxCell>
      </root>
    </mxGraphModel>
  </diagram>
</mxfile>
